<svg width="36" height="36" viewBox="0 0 36 36" fill="none" xmlns="http://www.w3.org/2000/svg">
<path d="M26.476 18.9109C26.4607 16.2879 27.6491 14.3111 30.049 12.8534C28.7067 10.9304 26.676 9.87277 23.9992 9.66893C21.4647 9.46894 18.6917 11.1458 17.6764 11.1458C16.6034 11.1458 14.1496 9.73816 12.2189 9.73816C8.23445 9.7997 4 12.915 4 19.2532C4 21.1262 4.34229 23.0607 5.02688 25.0529C5.94223 27.6759 9.2421 34.1026 12.6843 33.9988C14.4842 33.9564 15.7572 32.7219 18.0995 32.7219C20.3724 32.7219 21.5493 33.9988 23.5569 33.9988C27.0299 33.9488 30.0144 28.1067 30.8836 25.476C26.2261 23.2799 26.476 19.0455 26.476 18.9109ZM22.4339 7.18057C24.3838 4.86527 24.2069 2.75766 24.1492 2C22.4262 2.1 20.434 3.17303 19.2994 4.49221C18.0495 5.90754 17.3149 7.65747 17.4726 9.63047C19.334 9.77277 21.034 8.81512 22.4339 7.18057Z" fill="#36393F"/>
</svg>
