<svg width="244" height="180" viewBox="0 0 244 180" fill="none" xmlns="http://www.w3.org/2000/svg">
<path d="M243.5 158.181H0.5V158.301H243.5V158.181Z" fill="#E0E0E0"/>
<path d="M206.617 164.959H201.461V165.08H206.617V164.959Z" fill="#E0E0E0"/>
<path d="M197.897 165.019H176.926V165.14H197.897V165.019Z" fill="#E0E0E0"/>
<path d="M151 163.866H115.609V163.987H151V163.866Z" fill="#E0E0E0"/>
<path d="M95.2471 165.964H84.0156V166.085H95.2471V165.964Z" fill="#E0E0E0"/>
<path d="M57.8258 163.925H42.3613V164.045H57.8258V163.925Z" fill="#E0E0E0"/>
<path d="M74.9712 163.925H60.5176V164.045H74.9712V163.925Z" fill="#E0E0E0"/>
<path d="M46.9883 161.812H32.2285V161.933H46.9883V161.812Z" fill="#E0E0E0"/>
<path d="M115.68 136.633H21.8386C21.1034 136.631 20.3988 136.34 19.8794 135.823C19.3601 135.306 19.0684 134.605 19.0684 133.874V2.73458C19.0748 2.00795 19.3693 1.31317 19.888 0.801155C20.4067 0.28914 21.1076 0.00124476 21.8386 0H115.68C116.416 0 117.122 0.290652 117.642 0.808017C118.163 1.32538 118.455 2.02708 118.455 2.75874V133.874C118.455 134.606 118.163 135.307 117.642 135.825C117.122 136.342 116.416 136.633 115.68 136.633ZM21.8386 0.0966288C21.1356 0.0979086 20.4619 0.376399 19.9653 0.870973C19.4688 1.36555 19.1899 2.03579 19.1899 2.73458V133.874C19.1899 134.573 19.4688 135.243 19.9653 135.737C20.4619 136.232 21.1356 136.511 21.8386 136.512H115.68C116.383 136.511 117.058 136.232 117.555 135.738C118.052 135.243 118.332 134.573 118.334 133.874V2.73458C118.332 2.03535 118.052 1.36511 117.555 0.870678C117.058 0.376242 116.383 0.0979059 115.68 0.0966288H21.8386Z" fill="#E0E0E0"/>
<path d="M220.807 136.633H126.961C126.225 136.631 125.52 136.34 125 135.823C124.48 135.306 124.187 134.605 124.186 133.874V2.73458C124.193 2.00751 124.489 1.31273 125.008 0.800853C125.528 0.288971 126.229 0.00123119 126.961 0H220.807C221.537 0.00251451 222.237 0.290972 222.754 0.802851C223.272 1.31473 223.566 2.00879 223.572 2.73458V133.874C223.572 134.604 223.281 135.304 222.763 135.821C222.245 136.338 221.541 136.63 220.807 136.633ZM126.961 0.0966288C126.257 0.0979059 125.583 0.376242 125.086 0.870678C124.588 1.36511 124.308 2.03535 124.307 2.73458V133.874C124.308 134.573 124.588 135.243 125.086 135.738C125.583 136.232 126.257 136.511 126.961 136.512H220.807C221.51 136.511 222.185 136.232 222.682 135.738C223.179 135.243 223.459 134.573 223.461 133.874V2.73458C223.459 2.03535 223.179 1.36511 222.682 0.870678C222.185 0.376242 221.51 0.0979059 220.807 0.0966288H126.961Z" fill="#E0E0E0"/>
<path d="M87.1707 110.934C87.438 110.934 87.7053 110.934 87.9775 110.958C89.6709 111.077 91.3169 111.567 92.7975 112.393C94.2781 113.218 95.5566 114.359 96.5413 115.734C97.5261 117.109 98.1927 118.683 98.4934 120.344C98.7941 122.005 98.7215 123.712 98.2807 125.341C97.0252 130.208 96.419 135.218 96.4776 140.241V154.871C96.4776 155.384 96.2728 155.875 95.9082 156.238C95.5437 156.6 95.0492 156.804 94.5336 156.804H47.834V110.934H87.1707Z" fill="#E6E6E6"/>
<path d="M36.3321 122.371C36.3335 120.743 36.6845 119.135 37.3615 117.653C38.0385 116.171 39.0259 114.849 40.2578 113.777C41.4897 112.705 42.9376 111.906 44.5048 111.435C46.072 110.964 47.7223 110.83 49.3455 111.044C50.9686 111.258 52.5272 111.813 53.917 112.674C55.3069 113.534 56.4959 114.68 57.4047 116.034C58.3135 117.388 58.921 118.919 59.1868 120.525C59.4525 122.131 59.3703 123.775 58.9456 125.347C57.6901 130.214 57.0839 135.223 57.1426 140.247V154.877C57.1426 155.389 56.9378 155.881 56.5732 156.243C56.2086 156.606 55.7142 156.809 55.1986 156.809H40.4631C39.9475 156.809 39.453 156.606 39.0885 156.243C38.7239 155.881 38.5191 155.389 38.5191 154.877V139.387C38.5616 134.676 37.9633 129.981 36.7403 125.429C36.4658 124.433 36.3285 123.404 36.3321 122.371Z" fill="#F0F0F0"/>
<path d="M63.6866 156.793H122.75V128.95H63.6866V156.793Z" fill="#E6E6E6"/>
<path d="M157.402 135.247H84.1477V104.258C84.1477 101.962 85.0653 99.76 86.6986 98.1363C88.3318 96.5126 90.547 95.6004 92.8568 95.6004H148.708C151.015 95.6043 153.227 96.5181 154.857 98.1414C156.487 99.7647 157.402 101.965 157.402 104.258V135.247Z" fill="#E0E0E0"/>
<path d="M146.436 135.247H73.1858V103.843C73.1858 101.658 74.0588 99.5629 75.6128 98.018C77.1668 96.4732 79.2744 95.6053 81.4721 95.6053H138.149C140.347 95.6053 142.455 96.4732 144.009 98.018C145.563 99.5629 146.436 101.658 146.436 103.843V135.247Z" fill="#F0F0F0"/>
<path d="M120.005 137.743H64.2264C63.5562 137.743 62.9134 137.478 62.4394 137.007C61.9655 136.536 61.6992 135.897 61.6992 135.231V128.916C61.6992 128.25 61.9655 127.611 62.4394 127.139C62.9134 126.668 63.5562 126.404 64.2264 126.404H120.005C120.204 126.404 120.396 126.482 120.537 126.623C120.678 126.763 120.758 126.954 120.758 127.152L120.758 136.994C120.758 137.193 120.678 137.383 120.537 137.524C120.396 137.664 120.204 137.743 120.005 137.743Z" fill="#E0E0E0"/>
<path d="M161.527 110.934C161.795 110.934 162.067 110.934 162.339 110.958C164.032 111.077 165.678 111.567 167.159 112.393C168.639 113.218 169.918 114.359 170.903 115.734C171.887 117.109 172.554 118.683 172.855 120.344C173.155 122.005 173.083 123.712 172.642 125.341C171.383 130.207 170.775 135.217 170.834 140.241V154.871C170.834 155.384 170.629 155.875 170.265 156.238C169.9 156.6 169.406 156.804 168.89 156.804H122.195V110.934H161.527Z" fill="#E6E6E6"/>
<path d="M110.694 122.371C110.712 119.413 111.881 116.577 113.957 114.457C116.033 112.338 118.854 111.1 121.828 111.004C124.802 110.907 127.698 111.96 129.909 113.941C132.119 115.922 133.471 118.676 133.682 121.627C133.763 122.879 133.638 124.135 133.313 125.347C132.057 130.214 131.451 135.224 131.51 140.248V154.877C131.51 155.39 131.305 155.881 130.94 156.244C130.576 156.606 130.081 156.81 129.566 156.81H114.825C114.31 156.81 113.815 156.606 113.451 156.244C113.086 155.881 112.881 155.39 112.881 154.877V139.388C112.925 134.676 112.325 129.981 111.098 125.43C110.825 124.433 110.689 123.404 110.694 122.371Z" fill="#F0F0F0"/>
<path d="M48.6516 158.184H160.708C160.893 158.185 161.075 158.15 161.246 158.08C161.416 158.01 161.571 157.908 161.701 157.779C161.832 157.649 161.935 157.496 162.006 157.327C162.077 157.157 162.113 156.976 162.113 156.793H47.252C47.252 157.162 47.3994 157.516 47.6619 157.777C47.9244 158.038 48.2804 158.184 48.6516 158.184Z" fill="#E0E0E0"/>
<path d="M201.016 156.208H211.096V103.831H201.016V156.208Z" fill="#E6E6E6"/>
<path d="M165.232 158.181H209.166V156.214H165.232V158.181Z" fill="#E6E6E6"/>
<path d="M201.023 103.833H163.3V156.21H201.023V103.833Z" fill="#F0F0F0"/>
<path d="M199.591 105.557H164.726V138.884H199.591V105.557Z" fill="#E6E6E6"/>
<path d="M199.591 140.301H164.726V152.312H199.591V140.301Z" fill="#E6E6E6"/>
<path d="M172.079 105.557H164.726V138.884H172.079V105.557Z" fill="#E0E0E0"/>
<path d="M172.079 140.301H164.726V152.312H172.079V140.301Z" fill="#E0E0E0"/>
<path d="M83.7776 79.3479L171.18 79.3479V16.3172L83.7776 16.3172L83.7776 79.3479Z" fill="#E0E0E0"/>
<path d="M77.5153 79.3479L169.578 79.3479V16.3172L77.5153 16.3172L77.5153 79.3479Z" fill="#F0F0F0"/>
<path d="M167.627 77.4033V18.2571L79.4716 18.2571V77.4033H167.627Z" fill="#FAFAFA"/>
<path d="M127.374 48.2766C128.747 39.7882 122.937 31.8011 114.399 30.4369C105.86 29.0727 97.8257 34.848 96.4534 43.3364C95.0812 51.8248 100.891 59.8119 109.429 61.1761C117.968 62.5403 126.002 56.765 127.374 48.2766Z" fill="#E0E0E0"/>
<path d="M86.1336 63.7742C87.5576 61.9866 90.4153 60.6096 92.5294 60.6966C92.8413 60.6854 93.1523 60.736 93.4443 60.8455C93.7364 60.955 94.0036 61.1212 94.2304 61.3343C98.0892 59.1119 102.531 57.7494 106.201 57.8992C108.067 57.9717 109.515 58.4307 110.516 59.1795C114.662 55.8265 119.945 53.4446 123.779 53.4446C125.956 53.4446 127.307 54.2176 127.789 55.498C132.041 53.2465 136.41 51.8647 139.939 51.8647C145.557 51.8647 147.379 55.3772 145.08 60.3149C146.004 61.2474 150.426 62.547 150.251 64.1027H85.8906C85.9684 63.982 86.0316 63.8708 86.1336 63.7742Z" fill="#F0F0F0"/>
<path d="M108.292 41.0974C108.553 41.0869 108.813 41.1404 109.049 41.2533C109.285 41.3662 109.489 41.535 109.643 41.7449C112.919 39.4886 116.612 38.102 119.587 38.2566C120.857 38.2516 122.085 38.7146 123.032 39.5562C126.59 36.1742 131.032 33.7585 134.152 33.7585C135.931 33.7585 136.99 34.5412 137.306 35.8409C140.898 33.5556 144.533 32.1497 147.41 32.1497C150.968 32.1497 152.542 34.3093 152.051 37.6237C153.767 36.6574 155.453 36.0921 156.824 36.0921C158.724 36.0921 159.618 37.1792 159.463 38.8895C159.628 38.8895 159.793 38.8895 159.949 38.9136C162.865 39.1987 163.963 41.4067 162.568 43.9335H103.121C104.424 42.257 106.664 41.0153 108.292 41.0974Z" fill="#F0F0F0"/>
<path d="M60.2205 41.6585C61.5287 33.1601 55.6591 25.2166 47.1104 23.9161C38.5617 22.6157 30.5712 28.4508 29.2631 36.9492C27.955 45.4476 33.8246 53.3911 42.3733 54.6916C50.9219 55.992 58.9124 50.1569 60.2205 41.6585Z" fill="#E0E0E0"/>
<path d="M59.3022 41.7824C60.6744 33.294 54.8649 25.3069 46.3263 23.9427C37.7877 22.5786 29.7534 28.3539 28.3812 36.8423C27.0089 45.3307 32.8184 53.3178 41.357 54.682C49.8956 56.0462 57.9299 50.2708 59.3022 41.7824Z" fill="#F0F0F0"/>
<path d="M57.5265 39.3007C57.5314 42.522 56.3884 45.6409 54.3004 48.1042C52.2123 50.5675 49.3141 52.2159 46.1198 52.7571C42.9255 53.2983 39.6416 52.6972 36.8507 51.0605C34.0598 49.4239 31.9422 46.8574 30.8735 43.8163C29.8048 40.7752 29.8542 37.4562 31.0129 34.4479C32.1715 31.4396 34.3645 28.9364 37.203 27.3825C40.0414 25.8286 43.3417 25.3244 46.5184 25.9592C49.6952 26.5941 52.5432 28.327 54.557 30.8506L54.5959 30.8941C56.4983 33.2877 57.531 36.2502 57.5265 39.3007Z" fill="#E0E0E0"/>
<path d="M57.5322 39.2963C57.5282 42.0406 56.6901 44.7198 55.1276 46.9823C53.5652 49.2449 51.3515 50.9852 48.7767 51.9751C46.2019 52.965 43.3863 53.1583 40.6991 52.5295C38.012 51.9008 35.5786 50.4794 33.7182 48.4518C31.5238 45.6843 30.4946 42.1786 30.8473 38.6721C31.1999 35.1656 32.9069 31.9318 35.6092 29.6511C38.3114 27.3703 41.7981 26.2204 45.3358 26.4433C48.8735 26.6662 52.1863 28.2445 54.5773 30.8461L54.6162 30.8896C56.5133 33.2851 57.5409 36.2474 57.5322 39.2963Z" fill="#FAFAFA"/>
<path d="M44.1372 40.618C43.9543 40.6161 43.7757 40.563 43.6218 40.4647C43.4679 40.3664 43.345 40.227 43.2673 40.0624L39.7778 32.6607C39.7207 32.5455 39.6873 32.4201 39.6795 32.2919C39.6717 32.1637 39.6897 32.0353 39.7324 31.9141C39.7751 31.7929 39.8417 31.6814 39.9283 31.5861C40.0148 31.4908 40.1196 31.4136 40.2366 31.359C40.3535 31.3044 40.4802 31.2735 40.6092 31.2682C40.7383 31.2628 40.8672 31.2831 40.9882 31.3278C41.1093 31.3725 41.2202 31.4408 41.3145 31.5286C41.4087 31.6165 41.4844 31.7221 41.5371 31.8393L44.6281 38.41L49.0944 36.6128C49.3335 36.5167 49.6012 36.5189 49.8387 36.619C50.0761 36.7191 50.2638 36.9089 50.3604 37.1466C50.4571 37.3843 50.4548 37.6505 50.3541 37.8865C50.2534 38.1225 50.0625 38.3091 49.8234 38.4052L44.5017 40.5455C44.386 40.5928 44.2623 40.6174 44.1372 40.618Z" fill="#E0E0E0"/>
<path d="M181.515 126.318C185.141 126.801 187.386 118.974 179.377 112.335C179.834 120.022 175.188 125.448 181.515 126.318Z" fill="#F0F0F0"/>
<path d="M183.797 131.27C189.06 127.603 185.459 114.795 169.178 115.723C176.22 125.134 174.626 137.662 183.797 131.27Z" fill="#F0F0F0"/>
<path d="M181.946 131.181C178.452 127.437 183.429 118.016 196.006 121.456C188.906 127.659 188.046 137.694 181.946 131.181Z" fill="#F0F0F0"/>
<path d="M176.529 138.885H187.343L188.159 131.739H175.713L176.529 138.885Z" fill="#E0E0E0"/>
<path d="M174.908 133.015H188.963V131.44H174.908V133.015Z" fill="#E0E0E0"/>
<path d="M122.001 180C174.043 180 216.231 177.551 216.231 174.531C216.231 171.51 174.043 169.062 122.001 169.062C69.9588 169.062 27.7705 171.51 27.7705 174.531C27.7705 177.551 69.9588 180 122.001 180Z" fill="#F5F5F5"/>
<path d="M186.487 86.3145C183.872 91.7161 185.636 102.394 187.055 108.723C187.595 104.258 188.232 99.4077 188.839 94.9193C188.781 88.0152 188.241 82.691 186.487 86.3145Z" fill="#182137"/>
<path d="M186.346 170.429C186.05 170.532 185.728 170.532 185.432 170.429C185.362 170.396 185.301 170.345 185.255 170.281C185.21 170.218 185.183 170.144 185.175 170.066C185.169 170.019 185.175 169.971 185.192 169.926C185.209 169.882 185.237 169.842 185.272 169.81C185.666 169.467 187.25 169.839 187.43 169.883C187.446 169.887 187.461 169.896 187.472 169.909C187.484 169.922 187.491 169.938 187.493 169.955C187.494 169.973 187.489 169.991 187.48 170.007C187.47 170.022 187.456 170.034 187.44 170.042C187.087 170.203 186.721 170.332 186.346 170.429ZM185.559 169.854C185.502 169.863 185.449 169.886 185.403 169.921C185.389 169.935 185.378 169.951 185.372 169.97C185.367 169.989 185.365 170.008 185.369 170.028C185.37 170.078 185.385 170.126 185.411 170.169C185.438 170.211 185.475 170.246 185.52 170.269C185.777 170.409 186.38 170.298 187.148 169.979C186.63 169.846 186.092 169.804 185.559 169.854Z" fill="#FF7938"/>
<path d="M187.44 170.033H187.406C186.92 169.946 185.948 169.391 185.919 168.975C185.919 168.879 185.963 168.743 186.191 168.661C186.351 168.607 186.525 168.617 186.677 168.69C187.207 168.951 187.484 169.879 187.494 169.917C187.5 169.931 187.504 169.946 187.504 169.961C187.504 169.976 187.5 169.991 187.494 170.004C187.488 170.013 187.48 170.02 187.47 170.025C187.461 170.03 187.451 170.033 187.44 170.033ZM186.293 168.816H186.24C186.089 168.869 186.094 168.932 186.094 168.951C186.094 169.198 186.799 169.656 187.289 169.811C187.174 169.424 186.935 169.085 186.609 168.845C186.511 168.795 186.398 168.785 186.293 168.816Z" fill="#FF7938"/>
<path d="M141.44 75.5839C141.857 74.4036 142.625 73.3773 143.642 72.6412C144.66 71.9051 145.878 71.4941 147.136 71.4627H196.358C197.037 71.4468 197.711 71.5787 198.334 71.8492C198.956 72.1197 199.511 72.5223 199.96 73.0287C200.409 73.535 200.742 74.133 200.934 74.7805C201.126 75.4281 201.173 76.1096 201.072 76.7773L190.133 169.217C189.934 170.664 189.225 171.993 188.13 172.967C187.036 173.941 185.628 174.495 184.16 174.531H60.7158C60.0367 174.548 59.362 174.417 58.7394 174.147C58.1167 173.876 57.5612 173.474 57.1118 172.967C56.6624 172.461 56.3302 171.862 56.1384 171.214C55.9466 170.566 55.8999 169.885 56.0017 169.217L65.3231 90.5275C65.5213 89.0806 66.2312 87.7512 67.3257 86.7774C68.4201 85.8036 69.8277 85.2489 71.2961 85.2129H128.158C133.951 85.2129 139.467 81.2222 141.44 75.5839Z" fill="#FF7938"/>
<path opacity="0.1" d="M141.44 75.5839C141.857 74.4036 142.625 73.3773 143.642 72.6412C144.66 71.9051 145.878 71.4941 147.136 71.4627H196.358C197.037 71.4468 197.711 71.5787 198.334 71.8492C198.956 72.1197 199.511 72.5223 199.96 73.0287C200.409 73.535 200.742 74.133 200.934 74.7805C201.126 75.4281 201.173 76.1096 201.072 76.7773L190.133 169.217C189.934 170.664 189.225 171.993 188.13 172.967C187.036 173.941 185.628 174.495 184.16 174.531H60.7158C60.0367 174.548 59.362 174.417 58.7394 174.147C58.1167 173.876 57.5612 173.474 57.1118 172.967C56.6624 172.461 56.3302 171.862 56.1384 171.214C55.9466 170.566 55.8999 169.885 56.0017 169.217L65.3231 90.5275C65.5213 89.0806 66.2312 87.7512 67.3257 86.7774C68.4201 85.8036 69.8277 85.2489 71.2961 85.2129H128.158C133.951 85.2129 139.467 81.2222 141.44 75.5839Z" fill="#FAFAFA"/>
<path d="M97.4335 34.6591L30.9561 80.7446L74.8344 143.296L141.312 97.2108L97.4335 34.6591Z" fill="#FF7938"/>
<path opacity="0.8" d="M97.4335 34.6591L30.9561 80.7446L74.8344 143.296L141.312 97.2108L97.4335 34.6591Z" fill="#FAFAFA"/>
<path d="M97.2597 35.6305L30.7822 81.7161L74.6606 144.268L141.138 98.1822L97.2597 35.6305Z" fill="#FAFAFA"/>
<path d="M95.9047 43.8688L39.0186 83.3052L69.2419 126.391L126.128 86.9543L95.9047 43.8688Z" fill="#FF7938"/>
<path opacity="0.8" d="M95.9047 43.8688L39.0186 83.3052L69.2419 126.391L126.128 86.9543L95.9047 43.8688Z" fill="#FAFAFA"/>
<path d="M74.1272 80.9577C75.2273 82.5264 75.8344 84.3843 75.8717 86.2962C75.9091 88.208 75.3749 90.0879 74.337 91.6979C73.299 93.3078 71.8038 94.5754 70.0408 95.3401C68.2778 96.1049 66.3262 96.3324 64.433 95.9939C62.5398 95.6554 60.7902 94.7661 59.4057 93.4386C58.0213 92.1111 57.0641 90.405 56.6555 88.5365C56.2468 86.6679 56.4051 84.7207 57.1102 82.9416C57.8153 81.1625 59.0355 79.6313 60.6165 78.542C62.7315 77.0847 65.3415 76.5206 67.8742 76.9734C70.4069 77.4263 72.6556 78.8591 74.1272 80.9577Z" fill="#FF7938"/>
<path opacity="0.1" d="M74.1272 80.9577C75.2273 82.5264 75.8344 84.3843 75.8717 86.2962C75.9091 88.208 75.3749 90.0879 74.337 91.6979C73.299 93.3078 71.8038 94.5754 70.0408 95.3401C68.2778 96.1049 66.3262 96.3324 64.433 95.9939C62.5398 95.6554 60.7902 94.7661 59.4057 93.4386C58.0213 92.1111 57.0641 90.405 56.6555 88.5365C56.2468 86.6679 56.4051 84.7207 57.1102 82.9416C57.8153 81.1625 59.0355 79.6313 60.6165 78.542C62.7315 77.0847 65.3415 76.5206 67.8742 76.9734C70.4069 77.4263 72.6556 78.8591 74.1272 80.9577Z" fill="#FAFAFA"/>
<path d="M110.407 76.7004C108.943 75.2501 107.175 74.1377 105.23 73.4422C103.285 72.7467 101.21 72.4851 99.1515 72.6759C99.0883 72.5889 99.0397 72.4923 98.9765 72.4005C97.0939 69.6835 94.3073 67.7141 91.1075 66.8391C87.9077 65.9642 84.4999 66.2398 81.4844 67.6174C78.4689 68.995 76.0392 71.3863 74.6231 74.3701C73.2071 77.3538 72.8955 80.7386 73.7434 83.9282C73.3187 84.1272 72.9108 84.3599 72.5236 84.624C71.1378 85.5818 70.0729 86.9308 69.4664 88.4966C68.8599 90.0624 68.7398 91.7731 69.1216 93.4075C67.2666 94.1304 65.686 95.4128 64.6018 97.0745C63.4877 98.7266 62.8836 100.666 62.8638 102.655C62.8439 104.644 63.4092 106.595 64.49 108.269C65.2346 109.381 66.195 110.333 67.3149 111.071C68.4348 111.809 69.6916 112.317 71.0117 112.565C72.3317 112.814 73.6884 112.798 75.0021 112.518C76.3157 112.238 77.56 111.7 78.6617 110.936L95.0156 99.5965L109.999 89.209C111.665 88.0777 112.816 86.3397 113.202 84.3712C113.589 82.4027 113.18 80.3621 112.064 78.691L112.021 78.6233C111.542 77.9352 111.002 77.2916 110.407 76.7004Z" fill="#FF7938"/>
<path opacity="0.3" d="M110.407 76.7004C108.943 75.2501 107.175 74.1377 105.23 73.4422C103.285 72.7467 101.21 72.4851 99.1515 72.6759C99.0883 72.5889 99.0397 72.4923 98.9765 72.4005C97.0939 69.6835 94.3073 67.7141 91.1075 66.8391C87.9077 65.9642 84.4999 66.2398 81.4844 67.6174C78.4689 68.995 76.0392 71.3863 74.6231 74.3701C73.2071 77.3538 72.8955 80.7386 73.7434 83.9282C73.3187 84.1272 72.9108 84.3599 72.5236 84.624C71.1378 85.5818 70.0729 86.9308 69.4664 88.4966C68.8599 90.0624 68.7398 91.7731 69.1216 93.4075C67.2666 94.1304 65.686 95.4128 64.6018 97.0745C63.4877 98.7266 62.8836 100.666 62.8638 102.655C62.8439 104.644 63.4092 106.595 64.49 108.269C65.2346 109.381 66.195 110.333 67.3149 111.071C68.4348 111.809 69.6916 112.317 71.0117 112.565C72.3317 112.814 73.6884 112.798 75.0021 112.518C76.3157 112.238 77.56 111.7 78.6617 110.936L95.0156 99.5965L109.999 89.209C111.665 88.0777 112.816 86.3397 113.202 84.3712C113.589 82.4027 113.18 80.3621 112.064 78.691L112.021 78.6233C111.542 77.9352 111.002 77.2916 110.407 76.7004Z" fill="black"/>
<g style="mix-blend-mode:multiply">
<path d="M99.5322 45.6794L31.416 89.3359L72.9818 153.43L141.098 109.773L99.5322 45.6794Z" fill="#FF7938"/>
</g>
<path opacity="0.8" d="M99.5322 45.6794L31.416 89.3359L72.9818 153.43L141.098 109.773L99.5322 45.6794Z" fill="#FAFAFA"/>
<path d="M99.3291 46.652L31.2129 90.3086L72.7786 154.402L140.895 110.746L99.3291 46.652Z" fill="#FAFAFA"/>
<path d="M97.6723 54.837L39.3838 92.1948L68.0142 136.342L126.303 98.9846L97.6723 54.837Z" fill="#FF7938"/>
<path opacity="0.8" d="M97.6723 54.837L39.3838 92.1948L68.0142 136.342L126.303 98.9846L97.6723 54.837Z" fill="#FAFAFA"/>
<path d="M75.8747 98.3603C76.994 93.1519 73.6542 88.0275 68.415 86.9148C63.1758 85.802 58.0212 89.1221 56.9018 94.3306C55.7824 99.539 59.1222 104.663 64.3614 105.776C69.6007 106.889 74.7553 103.569 75.8747 98.3603Z" fill="#FF7938"/>
<path opacity="0.1" d="M75.8747 98.3603C76.994 93.1519 73.6542 88.0275 68.415 86.9148C63.1758 85.802 58.0212 89.1221 56.9018 94.3306C55.7824 99.539 59.1222 104.663 64.3614 105.776C69.6007 106.889 74.7553 103.569 75.8747 98.3603Z" fill="#FAFAFA"/>
<path d="M110.962 88.1852C109.551 86.6814 107.824 85.5049 105.904 84.7392C103.984 83.9735 101.918 83.6374 99.8524 83.7548C99.7941 83.6582 99.7503 83.5616 99.6871 83.4698C97.9037 80.6862 95.189 78.6178 92.0217 77.6292C88.8544 76.6406 85.4377 76.7952 82.3738 78.0658C79.3099 79.3364 76.7955 81.6413 75.2737 84.5744C73.752 87.5075 73.3206 90.8805 74.0555 94.0989C73.6214 94.2789 73.2036 94.4955 72.8065 94.7463C71.3898 95.6545 70.279 96.9636 69.6172 98.5049C68.9554 100.046 68.773 101.749 69.0935 103.395C67.2121 104.046 65.5849 105.27 64.4425 106.892C63.2684 108.502 62.5936 110.419 62.5012 112.405C62.4088 114.392 62.9028 116.362 63.9225 118.072C64.6241 119.212 65.5478 120.201 66.6392 120.981C67.7306 121.76 68.9677 122.316 70.2779 122.614C71.5881 122.912 72.945 122.946 74.2689 122.716C75.5928 122.485 76.857 121.994 77.9873 121.271L94.7785 110.506L110.136 100.665C111.838 99.5906 113.047 97.8942 113.501 95.9417C113.956 93.9892 113.62 91.9373 112.566 90.2289L112.518 90.1613C112.062 89.4561 111.541 88.7946 110.962 88.1852Z" fill="#FF7938"/>
<path opacity="0.3" d="M110.962 88.1852C109.551 86.6814 107.824 85.5049 105.904 84.7392C103.984 83.9735 101.918 83.6374 99.8524 83.7548C99.7941 83.6582 99.7503 83.5616 99.6871 83.4698C97.9037 80.6862 95.189 78.6178 92.0217 77.6292C88.8544 76.6406 85.4377 76.7952 82.3738 78.0658C79.3099 79.3364 76.7955 81.6413 75.2737 84.5744C73.752 87.5075 73.3206 90.8805 74.0555 94.0989C73.6214 94.2789 73.2036 94.4955 72.8065 94.7463C71.3898 95.6545 70.279 96.9636 69.6172 98.5049C68.9554 100.046 68.773 101.749 69.0935 103.395C67.2121 104.046 65.5849 105.27 64.4425 106.892C63.2684 108.502 62.5936 110.419 62.5012 112.405C62.4088 114.392 62.9028 116.362 63.9225 118.072C64.6241 119.212 65.5478 120.201 66.6392 120.981C67.7306 121.76 68.9677 122.316 70.2779 122.614C71.5881 122.912 72.945 122.946 74.2689 122.716C75.5928 122.485 76.857 121.994 77.9873 121.271L94.7785 110.506L110.136 100.665C111.838 99.5906 113.047 97.8942 113.501 95.9417C113.956 93.9892 113.62 91.9373 112.566 90.2289L112.518 90.1613C112.062 89.4561 111.541 88.7946 110.962 88.1852Z" fill="black"/>
<g style="mix-blend-mode:multiply">
<path d="M160.441 53.6732L79.8789 62.4585L88.2434 138.263L168.805 129.478L160.441 53.6732Z" fill="#FF7938"/>
</g>
<path opacity="0.8" d="M160.441 53.6732L79.8789 62.4585L88.2434 138.263L168.805 129.478L160.441 53.6732Z" fill="#FAFAFA"/>
<path d="M159.81 54.4462L79.248 63.2314L87.6125 139.036L168.174 130.251L159.81 54.4462Z" fill="#FAFAFA"/>
<path d="M154.658 61.0331L85.7197 68.5508L91.4812 120.765L160.42 113.247L154.658 61.0331Z" fill="#FF7938"/>
<path opacity="0.8" d="M154.658 61.0331L85.7197 68.5508L91.4812 120.765L160.42 113.247L154.658 61.0331Z" fill="#FAFAFA"/>
<path d="M160.213 111.336L160.422 113.245L124.613 117.153L133.162 107.075L141.915 96.7454L160.213 111.336Z" fill="#FF7938"/>
<path opacity="0.3" d="M160.213 111.336L160.422 113.245L124.613 117.153L133.162 107.075L141.915 96.7454L160.213 111.336Z" fill="black"/>
<path d="M144.917 114.936L91.4861 120.763L91.0195 116.564L111.99 92.9243L133.16 107.076L144.917 114.936Z" fill="#FF7938"/>
<path opacity="0.3" d="M144.917 114.936L91.4861 120.763L91.0195 116.564L111.99 92.9243L133.16 107.076L144.917 114.936Z" fill="black"/>
<path d="M138.351 80.4307C138.54 75.9279 135.021 72.1252 130.491 71.9373C125.962 71.7493 122.137 75.2473 121.948 79.7501C121.759 84.253 125.277 88.0557 129.807 88.2436C134.336 88.4316 138.161 84.9336 138.351 80.4307Z" fill="#FF7938"/>
<path opacity="0.1" d="M138.351 80.4307C138.54 75.9279 135.021 72.1252 130.491 71.9373C125.962 71.7493 122.137 75.2473 121.948 79.7501C121.759 84.253 125.277 88.0557 129.807 88.2436C134.336 88.4316 138.161 84.9336 138.351 80.4307Z" fill="#FAFAFA"/>
<g style="mix-blend-mode:multiply" opacity="0.7">
<path d="M120.463 94.8806C120.793 92.8031 122.79 91.3247 125.284 91.3247H174.52C177.47 91.3247 180.085 93.3781 180.352 95.9097L186.952 169.946C187.229 172.478 185.057 174.531 182.092 174.531H58.6483C55.6934 174.531 53.0788 172.478 52.8163 169.946L47.5141 107.771C47.2371 105.239 49.4046 103.191 52.3741 103.191H109.236C115.019 103.191 119.69 99.7459 120.463 94.8806Z" fill="#FF7938"/>
</g>
</svg>
