<svg width="36" height="36" viewBox="0 0 36 36" fill="none" xmlns="http://www.w3.org/2000/svg">
<path d="M13.1578 3.11361C9.36989 4.42823 6.14461 7.29978 4.35626 10.9294C3.73367 12.18 3.27911 13.515 3.00609 14.8879C2.31915 18.3089 2.79791 21.9563 4.35447 25.0721C5.36605 27.1059 6.81639 28.9139 8.5756 30.3313C10.2353 31.6729 12.1698 32.6639 14.2209 33.217C16.8091 33.9207 19.5641 33.9047 22.1692 33.3038C24.5238 32.7544 26.7515 31.6139 28.5301 29.9492C30.4101 28.1978 31.7511 25.8903 32.4611 23.4106C33.2355 20.7057 33.3423 17.818 32.8568 15.0492C27.9833 15.0467 23.1098 15.0479 18.2364 15.0485C18.237 17.0976 18.234 19.1467 18.2376 21.1952C21.0599 21.1947 23.8824 21.1941 26.7041 21.1952C26.377 23.1589 25.2258 24.9547 23.5935 26.0601C22.5673 26.7595 21.3882 27.2136 20.1728 27.4294C18.9494 27.641 17.6853 27.6682 16.465 27.4178C15.2241 27.1668 14.0395 26.6427 13.0061 25.9038C11.3536 24.727 10.0927 23.0051 9.44514 21.0674C8.78313 19.0964 8.77825 16.9033 9.44823 14.9341C9.91305 13.5463 10.6867 12.2642 11.7032 11.221C12.9569 9.91986 14.5869 8.98968 16.3431 8.60823C17.8468 8.28279 19.4324 8.34494 20.9046 8.79654C22.1559 9.18164 23.3095 9.8767 24.2544 10.7916C25.2094 9.82871 26.1599 8.86053 27.1131 7.89585C27.6132 7.37676 28.1387 6.88018 28.623 6.34693C27.1751 4.98864 25.4777 3.89665 23.6233 3.20642C20.2844 1.96079 16.519 1.93429 13.1578 3.11361Z" fill="#FAFAFA"/>
<path d="M13.158 3.11363C16.5192 1.93431 20.2846 1.96081 23.6235 3.20644C25.4779 3.89667 27.1753 4.98866 28.6231 6.34695C28.1389 6.8802 27.6133 7.37678 27.1133 7.89587C26.1601 8.86055 25.2096 9.82873 24.2545 10.7916C23.3097 9.87672 22.1561 9.18166 20.9048 8.79656C19.4326 8.34496 17.847 8.2828 16.3432 8.60825C14.5871 8.98969 12.9571 9.91988 11.7034 11.221C10.6869 12.2642 9.91324 13.5463 9.44842 14.9341C7.75112 13.5991 6.05439 12.2637 4.35645 10.9294C6.1448 7.2998 9.37008 4.42825 13.158 3.11363Z" fill="#EB3131"/>
<path d="M3.00609 14.8878C3.27911 13.5149 3.73367 12.1799 4.35626 10.9293C6.0542 12.2636 7.75093 13.599 9.44823 14.934C8.77825 16.9032 8.78313 19.0964 9.44514 21.0673C7.74848 22.4021 6.05299 23.7389 4.35447 25.072C2.79791 21.9562 2.31915 18.3088 3.00609 14.8878Z" fill="#F5D558"/>
<path d="M18.236 15.0486C23.1094 15.0479 27.9829 15.0468 32.8564 15.0492C33.3419 17.8181 33.2351 20.7057 32.4607 23.4106C31.7507 25.8904 30.4097 28.1978 28.5297 29.9492C26.8864 28.6506 25.2365 27.3595 23.5931 26.0602C25.2254 24.9547 26.3766 23.159 26.7037 21.1953C23.882 21.1941 21.0595 21.1948 18.2371 21.1953C18.2335 19.1468 18.2366 17.0977 18.236 15.0486Z" fill="#5878C5"/>
<path d="M4.35449 25.0721C6.05301 23.739 7.74851 22.4022 9.44517 21.0674C10.0927 23.0051 11.3537 24.727 13.0061 25.9038C14.0395 26.6427 15.2241 27.1668 16.465 27.4178C17.6854 27.6682 18.9494 27.641 20.1728 27.4294C21.3882 27.2136 22.5673 26.7595 23.5936 26.0602C25.2369 27.3594 26.8868 28.6506 28.5301 29.9492C26.7515 31.6139 24.5238 32.7544 22.1692 33.3038C19.5641 33.9047 16.8091 33.9207 14.221 33.217C12.1699 32.6639 10.2353 31.6729 8.57562 30.3313C6.81642 28.9139 5.36608 27.1059 4.35449 25.0721Z" fill="#3CAD49"/>
</svg>
