<svg width="251" height="238" viewBox="0 0 251 238" fill="none" xmlns="http://www.w3.org/2000/svg">
<circle cx="125" cy="112.5" r="80" fill="#EDEFF2"/>
<mask id="mask0_5098_23708" style="mask-type:alpha" maskUnits="userSpaceOnUse" x="45" y="32" width="160" height="161">
<circle cx="125" cy="112.5" r="80" fill="#F9F9F9"/>
</mask>
<g mask="url(#mask0_5098_23708)">
<g filter="url(#filter0_d_5098_23708)">
<rect x="65" y="72.5" width="120" height="136" rx="16" fill="white"/>
</g>
<rect x="73" y="172.5" width="40" height="8" rx="4" fill="#E2E4EA"/>
<rect x="169" y="172.5" width="8" height="8" rx="2.4" fill="#FF7938"/>
<rect x="73" y="138.9" width="104" height="24" rx="5.57333" fill="#E2E4EA"/>
<g filter="url(#filter1_d_5098_23708)">
<rect x="53" y="92.5" width="144" height="36.8" rx="9.6" fill="#5E6275"/>
</g>
<rect x="89.8008" y="107.7" width="64" height="6.4" rx="3.2" fill="#B1B9C8"/>
<rect x="177.799" y="105.3" width="11.2" height="11.2" rx="4" fill="#FF7938"/>
</g>
<g filter="url(#filter2_d_5098_23708)">
<circle cx="66.5992" cy="54.1001" r="18.4" fill="white"/>
</g>
<path d="M53.8027 54.0999C53.8027 47.0307 59.5335 41.2999 66.6027 41.2999C73.672 41.2999 79.4027 47.0307 79.4027 54.0999C79.4027 61.1692 73.672 66.8999 66.6027 66.8999C59.5335 66.8999 53.8027 61.1692 53.8027 54.0999Z" fill="#FF5605"/>
<path d="M69.8023 46.0999V49.2999" stroke="white" stroke-width="1.2" stroke-linecap="round" stroke-linejoin="round"/>
<path d="M63.402 46.0999V49.2999" stroke="white" stroke-width="1.2" stroke-linecap="round" stroke-linejoin="round"/>
<path d="M59.4023 51.6998H73.8023" stroke="white" stroke-width="1.2" stroke-linecap="round" stroke-linejoin="round"/>
<path fill-rule="evenodd" clip-rule="evenodd" d="M72.2023 47.6998H61.0023C60.1183 47.6998 59.4023 48.4158 59.4023 49.2998V59.6998C59.4023 60.5838 60.1183 61.2998 61.0023 61.2998H72.2023C73.0863 61.2998 73.8023 60.5838 73.8023 59.6998V49.2998C73.8023 48.4158 73.0863 47.6998 72.2023 47.6998Z" stroke="white" stroke-width="1.2" stroke-linecap="round" stroke-linejoin="round"/>
<path d="M66.6121 54.683C66.5017 54.683 66.4121 54.7726 66.4129 54.883C66.4129 54.9934 66.5025 55.083 66.6129 55.083C66.7233 55.083 66.8129 54.9934 66.8129 54.883C66.8129 54.7726 66.7233 54.683 66.6121 54.683" stroke="white" stroke-width="1.2" stroke-linecap="round" stroke-linejoin="round"/>
<path d="M70.6121 54.683C70.5017 54.683 70.4121 54.7726 70.4129 54.883C70.4129 54.9934 70.5025 55.083 70.6129 55.083C70.7233 55.083 70.8129 54.9934 70.8129 54.883C70.8129 54.7726 70.7233 54.683 70.6121 54.683" stroke="white" stroke-width="1.2" stroke-linecap="round" stroke-linejoin="round"/>
<path d="M62.6121 57.8831C62.5017 57.8831 62.4121 57.9727 62.4129 58.0831C62.4129 58.1935 62.5025 58.2831 62.6129 58.2831C62.7233 58.2831 62.8129 58.1935 62.8129 58.0831C62.8129 57.9727 62.7233 57.8831 62.6121 57.8831" stroke="white" stroke-width="1.2" stroke-linecap="round" stroke-linejoin="round"/>
<path d="M66.6121 57.8831C66.5017 57.8831 66.4121 57.9727 66.4129 58.0831C66.4129 58.1935 66.5025 58.2831 66.6129 58.2831C66.7233 58.2831 66.8129 58.1935 66.8129 58.0831C66.8129 57.9727 66.7233 57.8831 66.6121 57.8831" stroke="white" stroke-width="1.2" stroke-linecap="round" stroke-linejoin="round"/>
<circle cx="183.981" cy="187.035" r="1.73551" transform="rotate(180 183.981 187.035)" fill="#F1F3F7"/>
<circle cx="201.136" cy="155.036" r="1.73551" transform="rotate(180 201.136 155.036)" fill="#F1F3F7"/>
<circle cx="202.735" cy="178.236" r="1.73551" transform="rotate(180 202.735 178.236)" fill="#FF7938"/>
<circle cx="179.263" cy="40.3646" r="1.73551" transform="rotate(180 179.263 40.3646)" fill="#FF7938"/>
<circle cx="48.825" cy="190.986" r="1.73551" transform="rotate(180 48.825 190.986)" fill="#F1F3F7"/>
<path d="M55.6349 181.362L54.3489 182.648L53.4192 181.718L54.7052 180.432L53.2518 178.979L54.2314 177.999L55.6848 179.453L56.9743 178.163L57.904 179.093L56.6145 180.383L58.0073 181.775L57.0277 182.755L55.6349 181.362Z" fill="#FF7938"/>
<path d="M195.254 44.9183L194.64 45.5322L194.196 45.0884L194.81 44.4745L194.116 43.7807L194.584 43.3131L195.278 44.0069L195.893 43.3913L196.337 43.8351L195.722 44.4507L196.386 45.1156L195.919 45.5832L195.254 44.9183Z" fill="#FF7938"/>
<g filter="url(#filter3_d_5098_23708)">
<circle cx="184.199" cy="168.5" r="18.4" fill="white"/>
</g>
<path d="M174.6 168.5C174.6 163.198 178.898 158.9 184.2 158.9C189.502 158.9 193.8 163.198 193.8 168.5C193.8 173.802 189.502 178.1 184.2 178.1C178.898 178.1 174.6 173.802 174.6 168.5Z" fill="#FF5605"/>
<path d="M181 165.3L187.4 171.7" stroke="white" stroke-width="1.2" stroke-linecap="round" stroke-linejoin="round"/>
<path d="M187.4 165.3L181 171.7" stroke="white" stroke-width="1.2" stroke-linecap="round" stroke-linejoin="round"/>
<defs>
<filter id="filter0_d_5098_23708" x="-4.66667" y="5.61999" width="259.333" height="275.333" filterUnits="userSpaceOnUse" color-interpolation-filters="sRGB">
<feFlood flood-opacity="0" result="BackgroundImageFix"/>
<feColorMatrix in="SourceAlpha" type="matrix" values="0 0 0 0 0 0 0 0 0 0 0 0 0 0 0 0 0 0 127 0" result="hardAlpha"/>
<feOffset dy="2.78667"/>
<feGaussianBlur stdDeviation="34.8333"/>
<feComposite in2="hardAlpha" operator="out"/>
<feColorMatrix type="matrix" values="0 0 0 0 0.388235 0 0 0 0 0.419608 0 0 0 0 0.505882 0 0 0 0.15 0"/>
<feBlend mode="normal" in2="BackgroundImageFix" result="effect1_dropShadow_5098_23708"/>
<feBlend mode="normal" in="SourceGraphic" in2="effect1_dropShadow_5098_23708" result="shape"/>
</filter>
<filter id="filter1_d_5098_23708" x="-11" y="31.7" width="272" height="164.8" filterUnits="userSpaceOnUse" color-interpolation-filters="sRGB">
<feFlood flood-opacity="0" result="BackgroundImageFix"/>
<feColorMatrix in="SourceAlpha" type="matrix" values="0 0 0 0 0 0 0 0 0 0 0 0 0 0 0 0 0 0 127 0" result="hardAlpha"/>
<feOffset dy="3.2"/>
<feGaussianBlur stdDeviation="32"/>
<feComposite in2="hardAlpha" operator="out"/>
<feColorMatrix type="matrix" values="0 0 0 0 0.654902 0 0 0 0 0.682353 0 0 0 0 0.756863 0 0 0 0.2 0"/>
<feBlend mode="normal" in2="BackgroundImageFix" result="effect1_dropShadow_5098_23708"/>
<feBlend mode="normal" in="SourceGraphic" in2="effect1_dropShadow_5098_23708" result="shape"/>
</filter>
<filter id="filter2_d_5098_23708" x="0.199223" y="-9.51326" width="132.8" height="132.8" filterUnits="userSpaceOnUse" color-interpolation-filters="sRGB">
<feFlood flood-opacity="0" result="BackgroundImageFix"/>
<feColorMatrix in="SourceAlpha" type="matrix" values="0 0 0 0 0 0 0 0 0 0 0 0 0 0 0 0 0 0 127 0" result="hardAlpha"/>
<feOffset dy="2.78667"/>
<feGaussianBlur stdDeviation="24"/>
<feComposite in2="hardAlpha" operator="out"/>
<feColorMatrix type="matrix" values="0 0 0 0 0.654902 0 0 0 0 0.682353 0 0 0 0 0.756863 0 0 0 0.5 0"/>
<feBlend mode="normal" in2="BackgroundImageFix" result="effect1_dropShadow_5098_23708"/>
<feBlend mode="normal" in="SourceGraphic" in2="effect1_dropShadow_5098_23708" result="shape"/>
</filter>
<filter id="filter3_d_5098_23708" x="117.799" y="104.887" width="132.8" height="132.8" filterUnits="userSpaceOnUse" color-interpolation-filters="sRGB">
<feFlood flood-opacity="0" result="BackgroundImageFix"/>
<feColorMatrix in="SourceAlpha" type="matrix" values="0 0 0 0 0 0 0 0 0 0 0 0 0 0 0 0 0 0 127 0" result="hardAlpha"/>
<feOffset dy="2.78667"/>
<feGaussianBlur stdDeviation="24"/>
<feComposite in2="hardAlpha" operator="out"/>
<feColorMatrix type="matrix" values="0 0 0 0 0.654902 0 0 0 0 0.682353 0 0 0 0 0.756863 0 0 0 0.5 0"/>
<feBlend mode="normal" in2="BackgroundImageFix" result="effect1_dropShadow_5098_23708"/>
<feBlend mode="normal" in="SourceGraphic" in2="effect1_dropShadow_5098_23708" result="shape"/>
</filter>
</defs>
</svg>
