<svg width="202" height="200" viewBox="0 0 202 200" fill="none" xmlns="http://www.w3.org/2000/svg">
<path d="M42.5759 41.3996L47.6875 42.8074L43.9082 43.7311C41.9852 44.0376 41.1192 44.868 40.7684 45.9516L39.5915 55.4509L38.1438 45.9294C37.9654 45.4861 37.6956 45.0854 37.3521 44.7533C37.0085 44.4212 36.5988 44.1652 36.1497 44.002L31.2646 42.8074L36.4384 41.3419C36.8652 41.166 37.2518 40.9053 37.5747 40.5755C37.8976 40.2457 38.1502 39.8537 38.317 39.4234L39.6048 28.6539L40.5286 39.188C40.6773 39.689 40.9393 40.149 41.2943 40.5325C41.6493 40.916 42.0878 41.2127 42.5759 41.3996Z" fill="#EBEBEB"/>
<path d="M49.8909 55.8058L51.725 56.3121L50.3927 56.6452C49.6999 56.7562 49.3935 57.0493 49.2647 57.4357L48.8206 60.8464L48.301 57.4313C48.2376 57.2723 48.141 57.1286 48.0177 57.0099C47.8944 56.8912 47.7472 56.8002 47.586 56.7429L45.8096 56.2988L47.6659 55.7748C47.8182 55.7109 47.956 55.617 48.0712 55.4988C48.1864 55.3805 48.2766 55.2403 48.3365 55.0864L48.7806 51.2272L49.1137 55.002C49.1692 55.1885 49.2688 55.359 49.4041 55.4989C49.5393 55.6388 49.7063 55.7441 49.8909 55.8058Z" fill="#EBEBEB"/>
<path d="M15.3494 70.5363L0.874023 119.467L62.078 137.573L76.5534 88.6425L15.3494 70.5363Z" fill="#FAFAFA"/>
<path d="M76.5546 88.6509C76.5546 88.6509 76.4524 88.6509 76.257 88.5709L75.3954 88.3267L72.0647 87.363L59.5233 83.6991L15.3087 70.7003L15.5174 70.5893C11.2141 85.1558 6.28016 101.854 1.05754 119.52L0.933196 119.294L62.1257 137.431L61.9348 137.533C66.3269 122.811 69.9685 110.607 72.5132 102.067L75.4843 92.1637C75.8307 91.0209 76.0942 90.149 76.2748 89.5479C76.4568 88.9573 76.559 88.6597 76.559 88.6597C76.559 88.6597 76.4835 88.9573 76.3192 89.5479C76.1549 90.1386 75.8751 91.0135 75.5686 92.1459L72.682 102.04C70.1684 110.612 66.5712 122.864 62.2323 137.644L62.1879 137.791L62.0414 137.746L0.822171 119.653L0.644531 119.6L0.697824 119.423C5.93376 101.752 10.8677 85.0581 15.1932 70.4961L15.2421 70.3362L15.3975 70.385L59.6699 83.5704L72.1535 87.3097L75.4443 88.3L76.2792 88.562L76.5546 88.6509Z" fill="#E0E0E0"/>
<path d="M16.5477 74.2406L3.89404 117.014L60.8012 133.849L73.4548 91.0756L16.5477 74.2406Z" fill="#EBEBEB"/>
<path d="M3.89551 117.021L31.6384 96.3127L39.0283 116.59L50.0108 110.169L60.8025 133.857L3.89551 117.021Z" fill="#E0E0E0"/>
<path d="M50.1402 98.2446C49.8784 99.1308 49.3598 99.9194 48.6498 100.511C47.9398 101.102 47.0705 101.47 46.1516 101.567C45.2328 101.664 44.3057 101.487 43.4876 101.057C42.6696 100.628 41.9973 99.9652 41.5557 99.1535C41.1142 98.3418 40.9233 97.4175 41.007 96.4973C41.0908 95.5771 41.4456 94.7024 42.0265 93.9839C42.6074 93.2653 43.3883 92.7351 44.2705 92.4604C45.1526 92.1856 46.0965 92.1786 46.9827 92.4402C47.5711 92.614 48.1196 92.902 48.5968 93.2877C49.074 93.6734 49.4705 94.1494 49.7637 94.6884C50.0569 95.2274 50.2411 95.8189 50.3057 96.4291C50.3703 97.0393 50.3141 97.6562 50.1402 98.2446Z" fill="#E0E0E0"/>
<path d="M127.77 110.737L122.653 164.666L190.106 171.066L195.223 117.137L127.77 110.737Z" fill="#FAFAFA"/>
<path d="M195.204 117.123H194.88L193.93 117.043L190.284 116.692L176.45 115.449L127.737 110.919L127.928 110.764C126.413 126.814 124.672 145.213 122.838 164.686L122.665 164.473L190.115 170.899L189.937 171.046C191.509 154.814 192.815 141.353 193.73 131.943C194.174 127.235 194.556 123.545 194.805 121.014C194.933 119.761 195.031 118.793 195.098 118.131C195.164 117.47 195.209 117.137 195.209 117.137C195.209 117.137 195.209 117.456 195.138 118.1C195.067 118.744 194.995 119.712 194.884 120.956C194.654 123.478 194.32 127.173 193.894 131.854C193.006 141.296 191.771 154.792 190.261 171.077V171.241H190.097L122.638 164.882H122.443V164.686C124.299 145.217 126.049 126.818 127.577 110.768V110.595H127.75L176.561 115.311L190.328 116.666L193.956 117.03L194.884 117.128C195.107 117.105 195.204 117.123 195.204 117.123Z" fill="#E0E0E0"/>
<path d="M129.773 114.352L125.301 161.49L188.015 167.44L192.487 120.302L129.773 114.352Z" fill="#EBEBEB"/>
<path d="M125.286 161.479L149.969 134.256L161.8 153.872L171.934 144.945L188.002 167.426L125.286 161.479Z" fill="#E0E0E0"/>
<path d="M169.638 132.498C169.546 133.475 169.166 134.403 168.547 135.164C167.927 135.925 167.096 136.485 166.158 136.773C165.22 137.061 164.217 137.065 163.277 136.784C162.337 136.502 161.502 135.948 160.876 135.192C160.251 134.436 159.864 133.511 159.765 132.535C159.665 131.558 159.858 130.575 160.317 129.708C160.777 128.841 161.484 128.13 162.347 127.664C163.211 127.199 164.194 127 165.171 127.093C166.48 127.218 167.686 127.858 168.523 128.871C169.361 129.884 169.762 131.189 169.638 132.498Z" fill="#E0E0E0"/>
<path d="M63.8771 124.721L13.6719 136.96L23.4568 177.099L73.662 164.86L63.8771 124.721Z" fill="#FAFAFA"/>
<path d="M63.8712 124.73L63.6269 124.797L62.9252 124.975L60.2029 125.663L49.9486 128.194L13.7145 137.076L13.8122 136.916C16.7255 148.863 20.0696 162.554 23.609 177.045L23.427 176.939L73.6236 164.744L73.5303 164.895L66.5002 135.766C65.6609 132.262 64.9992 129.509 64.5462 127.626C64.3241 126.689 64.1554 125.969 64.0399 125.472C63.9244 124.975 63.8712 124.726 63.8712 124.726C63.8712 124.726 63.9378 124.966 64.0577 125.441C64.1776 125.916 64.3597 126.64 64.5906 127.564C65.0347 129.438 65.7319 132.173 66.5979 135.664L73.7746 164.837L73.8012 164.957L73.6813 164.988L23.498 177.245L23.3515 177.281L23.3159 177.134C19.7898 162.643 16.459 148.947 13.5457 136.996L13.5146 136.868L13.6434 136.837L49.9975 128.048L60.2562 125.583L62.9607 124.939L63.6535 124.779L63.8712 124.73Z" fill="#E0E0E0"/>
<path d="M62.7046 127.686L16.0244 139.066L24.5776 174.152L71.2578 162.773L62.7046 127.686Z" fill="#EBEBEB"/>
<path d="M24.5596 174.155L35.551 148.375L48.9762 159.557L54.0478 150.595L71.2389 162.781L24.5596 174.155Z" fill="#E0E0E0"/>
<path d="M49.2861 142.197C49.4632 142.924 49.4208 143.687 49.1642 144.39C48.9076 145.093 48.4484 145.704 47.8446 146.146C47.2408 146.587 46.5196 146.84 45.772 146.872C45.0244 146.905 44.2842 146.714 43.6448 146.326C43.0053 145.937 42.4955 145.368 42.1797 144.689C41.8639 144.011 41.7563 143.254 41.8705 142.515C41.9847 141.775 42.3156 141.086 42.8214 140.535C43.3271 139.983 43.985 139.594 44.7119 139.417C45.1948 139.299 45.6962 139.277 46.1875 139.353C46.6788 139.429 47.1503 139.601 47.5751 139.859C47.9998 140.117 48.3696 140.456 48.6632 140.857C48.9568 141.259 49.1685 141.714 49.2861 142.197Z" fill="#E0E0E0"/>
<path d="M187.87 28.9429L116.841 41.9791L127.264 98.768L198.293 85.7318L187.87 28.9429Z" fill="#FAFAFA"/>
<path d="M187.872 28.9384L187.53 29.0094L186.536 29.2048L182.681 29.9331L168.145 32.6555L116.874 42.1725L117.025 41.9549C120.134 58.8574 123.687 78.229 127.47 98.7331L127.222 98.5732L198.278 85.57L198.14 85.7743C195.031 68.6675 192.464 54.4874 190.666 44.5707C189.778 39.6101 189.076 35.7198 188.596 33.0507C188.361 31.7184 188.183 30.7103 188.059 30.0131C187.935 29.3158 187.886 28.9561 187.886 28.9561C187.886 28.9561 187.961 29.2936 188.09 29.9687C188.219 30.6437 188.414 31.6607 188.663 32.9708C189.16 35.6354 189.884 39.4946 190.812 44.433C192.655 54.3675 195.298 68.5743 198.482 85.7343L198.513 85.9031L198.34 85.9342L127.306 98.9685L127.097 99.0085L127.062 98.7997C123.309 78.2956 119.756 58.9195 116.661 42.0171L116.63 41.8306L116.812 41.7951L168.239 32.469L182.734 29.8354L186.558 29.156L187.539 28.9872L187.872 28.9384Z" fill="#E0E0E0"/>
<path d="M185.99 32.9859L119.949 45.1066L129.06 94.745L195.1 82.6243L185.99 32.9859Z" fill="#EBEBEB"/>
<path d="M129.061 94.7409L146.46 59.6526L164.291 76.333L172.089 64.2313L195.098 82.617L129.061 94.7409Z" fill="#E0E0E0"/>
<path d="M166.12 52.1336C166.309 53.1626 166.189 54.2246 165.775 55.1854C165.361 56.1461 164.671 56.9623 163.792 57.5309C162.914 58.0994 161.887 58.3946 160.841 58.3793C159.794 58.3639 158.776 58.0386 157.915 57.4446C157.054 56.8505 156.388 56.0144 156.002 55.0419C155.616 54.0694 155.527 53.0043 155.747 51.9813C155.966 50.9583 156.484 50.0234 157.235 49.2948C157.986 48.5661 158.936 48.0766 159.965 47.888C160.648 47.7623 161.349 47.7724 162.028 47.9177C162.707 48.0631 163.351 48.3409 163.922 48.7351C164.494 49.1294 164.982 49.6325 165.359 50.2157C165.737 50.7988 165.995 51.4505 166.12 52.1336Z" fill="#E0E0E0"/>
<path d="M147.78 21.9295L154.606 12.1993L143.512 17.0666L144.13 2.22478L135.465 11.9461L128.306 0.341797L124.851 13.5271L114.006 12.2659L121.201 23.6748L109.006 32.1749L124.19 28.6709L124.678 40.7194L134.817 32.5879L145.462 41.5276L144.174 29.7856L157.564 28.7109L147.78 21.9295Z" fill="white"/>
<path d="M147.781 21.9297C147.781 21.9297 147.989 22.0851 148.407 22.3738L150.281 23.7061L157.524 28.7777L157.555 28.6533L144.166 29.6925H144.072V29.7902C144.45 33.3075 144.881 37.2733 145.342 41.5367L145.525 41.439L134.866 32.4859L134.786 32.4193L134.706 32.4859L124.563 40.6085L124.785 40.7062C124.63 36.8869 124.465 32.8279 124.301 28.6622V28.5023L124.146 28.529C119.425 29.3195 114.042 31.1714 108.957 32.0285L109.059 32.2905C112.612 30.0256 116.813 26.6149 120.637 24.1901L121.259 23.7949L121.383 23.7149L121.303 23.595L114.127 12.1905L113.989 12.4082L124.834 13.6694H124.958L124.989 13.5495C126.174 9.01671 127.324 4.62012 128.44 0.359721L128.191 0.39969L135.359 11.9996L135.448 12.1461L135.559 12.0173L144.214 2.28711L144.015 2.20718C143.793 7.69181 143.597 12.6524 143.419 17.049V17.1956L143.557 17.1378L154.66 12.2527L154.58 12.155C152.359 15.3392 150.672 17.7818 149.517 19.4383L148.207 21.299C147.918 21.7165 147.763 21.9252 147.763 21.9252C147.763 21.9252 147.923 21.712 148.207 21.2946L149.539 19.4383L154.642 12.2305L154.78 12.0351L154.558 12.1328L143.455 16.9735L143.584 17.0623C143.775 12.6702 143.988 7.70958 144.223 2.22494V1.90519L144.015 2.145C141.3 5.18265 138.409 8.42014 135.341 11.8575H135.541L128.422 0.2709L128.258 0L128.178 0.306428C127.059 4.55499 125.904 8.95009 124.714 13.4918L124.865 13.3852L114.025 12.1239L113.723 12.0884L113.882 12.3415C116.236 16.072 118.634 19.8764 121.077 23.7549L121.126 23.5506L120.504 23.9459C116.68 26.3751 112.51 29.7858 108.926 32.0507L108.322 32.4371L109.028 32.3172C114.109 31.46 119.496 29.6081 124.212 28.8132L124.048 28.68C124.221 32.8456 124.39 36.9047 124.545 40.724V40.9904L124.75 40.8217L134.879 32.6858H134.72C138.521 35.8655 142.109 38.8765 145.378 41.6166L145.591 41.7943L145.56 41.5189C145.085 37.2555 144.645 33.2942 144.254 29.7769L144.17 29.879L157.555 28.7777H157.746L157.586 28.6711L150.343 23.675L148.442 22.3738L147.781 21.9297Z" fill="#263238"/>
<path d="M136.461 16.2812L136.017 23.1425C136 23.4138 135.885 23.6696 135.692 23.8618C135.5 24.054 135.244 24.1694 134.973 24.1862C134.687 24.2039 134.406 24.1109 134.186 23.9265C133.967 23.7421 133.828 23.4805 133.796 23.1958L133.037 16.299C133.026 16.1758 133.04 16.0516 133.08 15.9345C133.12 15.8173 133.183 15.7097 133.267 15.6186C133.351 15.5274 133.452 15.4547 133.566 15.4052C133.679 15.3556 133.801 15.3303 133.925 15.3308H135.599C135.719 15.3341 135.837 15.3616 135.946 15.4117C136.055 15.4618 136.152 15.5333 136.233 15.6221C136.313 15.7109 136.375 15.8151 136.414 15.9284C136.453 16.0416 136.469 16.1616 136.461 16.2812Z" fill="#FF5605"/>
<path d="M133.16 28.0445C133.265 28.3586 133.46 28.6346 133.722 28.8376C133.983 29.0407 134.299 29.1617 134.629 29.1853C134.959 29.2089 135.289 29.1342 135.577 28.9704C135.865 28.8067 136.097 28.5613 136.246 28.2653C136.394 27.9694 136.451 27.6361 136.41 27.3076C136.369 26.9791 136.231 26.6702 136.015 26.4198C135.798 26.1695 135.512 25.989 135.193 25.9011C134.874 25.8133 134.536 25.822 134.222 25.9262C133.801 26.0671 133.452 26.3691 133.254 26.7661C133.055 27.1632 133.021 27.6229 133.16 28.0445Z" fill="#FF5605"/>
<path d="M98.4979 50.8479L96.0731 24.5261C95.9754 17.1851 91.6321 11.1231 84.2867 11.4251L83.6116 11.4917C80.327 11.8194 77.2863 13.3725 75.0954 15.8415C72.9046 18.3106 71.7243 21.5144 71.7897 24.8147C71.9096 31.1742 72.1228 38.1999 72.5047 41.5795C73.2863 48.583 81.5377 48.8228 81.5377 48.8228L82.4259 54.9292C82.4259 54.9292 85.9787 57.0475 91.1436 56.1371C96.7437 55.1423 98.4979 50.8479 98.4979 50.8479Z" fill="#FFBE9D"/>
<path d="M81.5249 48.8003C84.7813 48.4799 87.8769 47.2296 90.4424 45.1986C90.4424 45.1986 88.8437 50.4568 81.7869 50.5278L81.5249 48.8003Z" fill="#EB996E"/>
<path d="M75.0853 30.0198C75.1145 30.2766 75.2415 30.5122 75.4401 30.6777C75.6386 30.8431 75.8933 30.9256 76.1512 30.908C76.2796 30.9063 76.4065 30.8788 76.5241 30.827C76.6416 30.7752 76.7476 30.7002 76.8355 30.6065C76.9234 30.5128 76.9915 30.4023 77.0357 30.2816C77.0799 30.161 77.0992 30.0326 77.0927 29.9043C77.0689 29.6431 76.9443 29.4015 76.7453 29.2307C76.5463 29.0599 76.2886 28.9734 76.0268 28.9895C75.8963 28.9921 75.7678 29.0213 75.6489 29.0752C75.53 29.1291 75.4233 29.2065 75.3353 29.3029C75.2473 29.3992 75.1797 29.5124 75.1367 29.6357C75.0938 29.7589 75.0763 29.8896 75.0853 30.0198Z" fill="#263238"/>
<path d="M73.638 28.0789C73.7757 28.1988 74.4774 27.5593 75.5565 27.4571C76.6357 27.355 77.475 27.8124 77.5816 27.6658C77.6305 27.6037 77.4795 27.3816 77.1109 27.164C76.6137 26.8868 76.0423 26.7719 75.4766 26.8354C74.9158 26.8868 74.3864 27.1172 73.9667 27.4926C73.6602 27.7813 73.5714 28.0256 73.638 28.0789Z" fill="#263238"/>
<path d="M84.9803 29.0562C85.003 29.3178 85.1273 29.5601 85.3265 29.7311C85.5258 29.9021 85.7841 29.9883 86.0462 29.971C86.1745 29.9688 86.301 29.9408 86.4183 29.8888C86.5356 29.8368 86.6413 29.7618 86.7291 29.6682C86.8168 29.5746 86.885 29.4644 86.9294 29.344C86.9738 29.2236 86.9936 29.0955 86.9877 28.9673C86.9661 28.7053 86.8421 28.4623 86.6426 28.2911C86.4431 28.1198 86.1841 28.0341 85.9218 28.0525C85.7937 28.0553 85.6675 28.0837 85.5504 28.1359C85.4334 28.1882 85.328 28.2632 85.2403 28.3566C85.1527 28.4501 85.0845 28.5601 85.0399 28.6802C84.9952 28.8003 84.975 28.9281 84.9803 29.0562Z" fill="#263238"/>
<path d="M84.2468 27.2268C84.3845 27.3423 85.0861 26.7073 86.1653 26.6007C87.2445 26.4941 88.0838 26.9559 88.186 26.8138C88.2393 26.7517 88.0927 26.5252 87.7419 26.312C87.2452 26.0333 86.6737 25.9168 86.1076 25.9789C85.5448 26.0263 85.0122 26.2537 84.5888 26.6273C84.269 26.9249 84.1802 27.1736 84.2468 27.2268Z" fill="#263238"/>
<path d="M81.1333 35.6024C81.1333 35.5402 80.4494 35.4913 79.3569 35.4603C79.0771 35.4603 78.8107 35.4336 78.7485 35.2471C78.6968 34.9663 78.7324 34.6765 78.8507 34.4166C79.0431 33.7238 79.2444 32.9985 79.4546 32.2405C80.2851 29.1318 80.858 26.6138 80.7336 26.5783C80.6093 26.5427 79.8454 29.0297 79.0016 32.1251C78.8033 32.886 78.6138 33.6143 78.4332 34.31C78.2915 34.6583 78.2789 35.0458 78.3977 35.4025C78.4464 35.4962 78.5163 35.5771 78.6019 35.6388C78.6875 35.7005 78.7864 35.7412 78.8906 35.7578C79.0468 35.7792 79.2052 35.7792 79.3614 35.7578C80.4583 35.7267 81.1333 35.6645 81.1333 35.6024Z" fill="#263238"/>
<path d="M84.3757 36.0327C84.2025 36.0327 84.3136 37.2096 83.3987 38.1377C82.4839 39.0659 81.2226 39.0615 81.2271 39.2258C81.2271 39.3013 81.5291 39.4256 82.0575 39.3901C82.7429 39.3293 83.3854 39.0308 83.8739 38.5463C84.3462 38.0751 84.6142 37.437 84.62 36.7699C84.6156 36.2947 84.4557 36.0194 84.3757 36.0327Z" fill="#263238"/>
<path d="M83.5497 23.0294C83.6829 23.3136 84.7443 23.0693 86.0233 23.0915C87.3023 23.1137 88.3593 23.3624 88.5014 23.0915C88.5635 22.9583 88.3593 22.7007 87.9152 22.4565C87.3327 22.1626 86.689 22.0105 86.0366 22.0124C85.3815 21.9968 84.7324 22.14 84.1447 22.4298C83.7006 22.6297 83.4875 22.8961 83.5497 23.0294Z" fill="#263238"/>
<path d="M73.7212 24.922C73.9344 25.1485 74.6539 24.8198 75.5465 24.7177C76.4391 24.6156 77.2074 24.7177 77.3584 24.4468C77.4206 24.3136 77.2785 24.0826 76.9143 23.8828C76.4431 23.651 75.914 23.5636 75.3933 23.6315C74.8726 23.6995 74.3836 23.9198 73.9877 24.2647C73.7079 24.5489 73.628 24.811 73.7212 24.922Z" fill="#263238"/>
<path d="M72.1539 21.52C72.1539 21.52 73.5617 16.9458 75.5779 15.7068C78.016 14.2146 79.4016 16.9147 81.7731 15.991C84.1446 15.0673 86.4761 13.6284 89.1585 15.2716C92.0984 17.048 90.9615 18.6423 91.4411 21.7332C93.3819 34.2746 96.042 37.6142 96.1042 31.6056C96.1042 30.9483 97.8806 30.2733 97.8806 27.4754C97.8806 23.8782 97.5786 19.5349 96.5483 17.0835C95.6601 15.0184 94.3011 13.6639 91.9607 12.2606C88.2614 10.0401 83.5228 10.4531 80.352 11.097C77.1811 11.741 71.3012 16.0487 72.1539 21.52Z" fill="#263238"/>
<path d="M95.6291 31.4593C95.6122 31.2014 95.6478 30.9427 95.7336 30.6989C95.8195 30.4551 95.9538 30.2312 96.1285 30.0407C96.3032 29.8503 96.5147 29.6971 96.7502 29.5906C96.9857 29.4841 97.2403 29.4263 97.4987 29.4209C98.831 29.4209 100.35 30.016 100.532 32.725C100.856 37.5302 95.9621 36.864 95.9444 36.7219C95.9266 36.5798 95.7445 33.4755 95.6291 31.4593Z" fill="#FFBE9D"/>
<path d="M96.868 34.8467C96.868 34.8467 96.9569 34.9 97.1034 34.9577C97.3083 35.0286 97.5327 35.0175 97.7296 34.9266C98.2226 34.7046 98.5956 33.8696 98.5645 33.0037C98.5488 32.5913 98.4411 32.1877 98.2492 31.8223C98.1928 31.6752 98.1022 31.5437 97.9848 31.4387C97.8674 31.3336 97.7266 31.2581 97.5742 31.2184C97.4759 31.2026 97.3753 31.2204 97.2883 31.2687C97.2013 31.317 97.1331 31.3931 97.0945 31.4848C97.0413 31.6225 97.0945 31.7158 97.0501 31.7246C97.0057 31.7335 96.9436 31.6536 96.9702 31.4493C96.9884 31.3291 97.0481 31.2191 97.139 31.1384C97.2609 31.0304 97.4204 30.9746 97.5831 30.983C97.7832 31.0085 97.9735 31.0853 98.1353 31.2059C98.2971 31.3265 98.4251 31.4868 98.5068 31.6714C98.7438 32.0764 98.8751 32.5346 98.8887 33.0037C98.9242 33.9718 98.489 34.9133 97.8095 35.162C97.6796 35.206 97.5414 35.22 97.4053 35.2031C97.2692 35.1862 97.1387 35.1387 97.0235 35.0643C96.8858 34.9621 96.8547 34.86 96.868 34.8467Z" fill="#EB996E"/>
<path d="M94.6071 22.186C94.0672 22.7213 93.4014 23.1123 92.6709 23.3229C91.9292 23.4739 91.0277 23.1275 90.8278 22.3992C90.739 22.0705 90.7834 21.6753 90.5347 21.4399C90.286 21.2045 89.7709 21.3022 89.3756 21.3866C88.6818 21.5064 87.9679 21.3871 87.3507 21.0483C86.7335 20.7094 86.2496 20.1711 85.9783 19.5214C85.6763 20.0898 84.8458 20.1476 84.2729 19.8545C83.7284 19.4986 83.2366 19.0681 82.8118 18.5755C82.3677 18.1314 81.7105 17.7628 81.0843 17.9182C80.7588 18.067 80.4177 18.1787 80.0673 18.2513C79.4322 18.2513 79.0503 17.5496 78.8949 16.919C78.7394 16.2884 78.5884 15.5867 78.0067 15.2936C77.4249 15.0005 76.8609 15.2936 76.2925 15.4179C75.724 15.5423 74.9602 15.4979 74.7514 14.9472C74.712 14.7981 74.7031 14.6426 74.7252 14.4899C74.7474 14.3373 74.8001 14.1907 74.8802 14.059C75.2107 13.438 75.742 12.9476 76.3873 12.6677C77.0327 12.3878 77.7538 12.335 78.433 12.5179C78.5899 11.6971 78.9866 10.9411 79.573 10.3456C80.1594 9.75006 80.909 9.34167 81.7274 9.17202C82.5457 9.00236 83.396 9.07905 84.1708 9.39239C84.9456 9.70573 85.6101 10.2417 86.0804 10.9325C86.5446 10.4211 87.1253 10.0292 87.7732 9.79001C88.4211 9.55084 89.1172 9.47147 89.8023 9.55864C90.4875 9.64581 91.1415 9.89694 91.7089 10.2907C92.2763 10.6845 92.7403 11.2094 93.0617 11.8207C93.634 11.6013 94.2584 11.5559 94.8565 11.6903C95.4545 11.8248 95.9995 12.133 96.4228 12.5763C96.8461 13.0196 97.129 13.5781 97.2358 14.1817C97.3426 14.7853 97.2686 15.407 97.023 15.9686C97.9334 16.3727 98.7595 17.1543 98.8749 18.1447C98.9904 19.135 98.1244 20.2186 97.1385 20.0543C97.3622 20.4241 97.4387 20.8644 97.353 21.2879C97.2673 21.7115 97.0256 22.0873 96.6758 22.341C96.326 22.5947 95.8936 22.7077 95.4644 22.6576C95.0351 22.6075 94.6404 22.398 94.3584 22.0705" fill="#263238"/>
<path d="M78.2425 13.979C78.2375 14.0084 78.2375 14.0384 78.2425 14.0678C78.2425 14.1256 78.2691 14.2144 78.3002 14.321C78.3975 14.6398 78.5477 14.94 78.7443 15.2092C79.053 15.6377 79.4556 15.9901 79.9212 16.2395C80.5366 16.5747 81.2437 16.7024 81.9374 16.6036L81.8486 16.5015C81.7954 16.7274 81.788 16.9617 81.8269 17.1906C81.8658 17.4194 81.9502 17.6381 82.0751 17.8338C82.3323 18.2432 82.6479 18.6127 83.0121 18.9307C83.19 19.1178 83.3881 19.2847 83.6028 19.4281C83.8456 19.5599 84.117 19.63 84.3933 19.6324C84.6802 19.6462 84.9661 19.589 85.2257 19.4658C85.4852 19.3427 85.7103 19.1573 85.881 18.9263L85.6945 18.8952C85.8111 19.387 86.0294 19.849 86.3353 20.2513C86.6413 20.6536 87.0281 20.9874 87.4709 21.2312C87.9599 21.5224 88.5303 21.6471 89.0963 21.5864C89.6272 21.5108 90.141 21.344 90.6151 21.0935L90.4819 21.0491C90.7872 21.6048 91.2269 22.075 91.7609 22.4169C92.0071 22.5896 92.2888 22.7051 92.5854 22.755C92.8819 22.8049 93.1859 22.788 93.4751 22.7056C93.9714 22.5441 94.4094 22.2405 94.7347 21.8323C95.06 21.4241 95.2582 20.9294 95.3048 20.4096L95.1982 20.4717C95.7309 20.6891 96.3224 20.7158 96.8725 20.5472C97.2823 20.4277 97.6581 20.2132 97.9694 19.9211C98.1651 19.7383 98.3261 19.5216 98.4446 19.2816C98.4873 19.1999 98.52 19.1134 98.5423 19.024C98.3841 19.3419 98.1705 19.6291 97.9117 19.8722C97.6038 20.143 97.2375 20.339 96.8414 20.4451C96.3183 20.5933 95.7601 20.5572 95.2604 20.343L95.1671 20.303V20.4051C95.1133 20.8867 94.9204 21.3422 94.6121 21.716C94.3037 22.0898 93.8933 22.3657 93.4307 22.5102C93.1675 22.5829 92.8913 22.5959 92.6224 22.5483C92.3535 22.5006 92.0986 22.3935 91.8764 22.2348C91.3711 21.9091 90.9557 21.4617 90.6684 20.9336L90.624 20.8492L90.5352 20.8936C90.0807 21.1303 89.5899 21.2894 89.083 21.3644C88.5592 21.4181 88.0322 21.2996 87.5819 21.0269C87.1627 20.7949 86.797 20.4773 86.5085 20.0948C86.2201 19.7122 86.0154 19.2732 85.9077 18.8064L85.8544 18.5843L85.7211 18.7708C85.5708 18.9745 85.3726 19.1382 85.1442 19.2474C84.9158 19.3566 84.664 19.408 84.411 19.397C84.1676 19.3961 83.928 19.3351 83.7138 19.2194C83.5111 19.0845 83.3235 18.9282 83.1542 18.7531C82.8006 18.462 82.4896 18.1226 82.2305 17.745C82.004 17.3941 81.9243 16.9683 82.0085 16.5592L82.0351 16.4393H81.9152C81.2536 16.5436 80.5761 16.4315 79.9834 16.1196C79.5279 15.8882 79.1291 15.5591 78.8154 15.1559C78.558 14.7996 78.3641 14.4014 78.2425 13.979Z" fill="#455A64"/>
<path d="M97.5211 22.6033C97.3858 22.8949 97.201 23.1609 96.9748 23.3893C96.463 23.9702 95.8637 24.4676 95.1984 24.8637C94.5328 25.2673 93.8073 25.5626 93.049 25.7386C92.7412 25.8312 92.4193 25.8673 92.0986 25.8452C93.1369 25.5841 94.1381 25.1932 95.0785 24.6817C95.9766 24.0939 96.7972 23.3956 97.5211 22.6033Z" fill="white"/>
<path d="M97.8501 25.0374C97.6952 25.2906 97.5002 25.5171 97.2728 25.7079C96.232 26.7006 94.9769 27.4406 93.6045 27.8707C93.3217 27.9833 93.0207 28.0435 92.7163 28.0484C93.6445 27.6895 94.5493 27.2727 95.4253 26.8004C96.2678 26.2613 97.0775 25.6726 97.8501 25.0374Z" fill="white"/>
<path d="M82.084 52.549L69.8001 55.9952C68.341 56.3984 67.0579 57.2767 66.1541 58.4911L57.0278 71.2856L59.9056 74.5853L127.937 74.6163C127.937 74.6163 125.33 65.0593 124.473 62.1282C123.181 57.6872 121.427 56.4482 119.828 54.8317C119.084 54.1676 118.216 53.6575 117.274 53.3306C114.45 52.7133 101.047 49.6002 98.4979 49.6712C98.4979 49.6712 95.8733 55.9153 89.718 55.8576C83.5628 55.7998 82.084 52.549 82.084 52.549Z" fill="#455A64"/>
<path d="M110.587 63.9717C110.631 63.9717 110.764 63.3944 111.177 62.5284C111.734 61.4099 112.465 60.3874 113.344 59.4997C114.234 58.6138 115.184 57.7903 116.187 57.0349C116.615 56.7349 117.02 56.4039 117.399 56.0446C116.929 56.283 116.483 56.5655 116.067 56.8883C115.021 57.6058 114.044 58.419 113.149 59.3176C112.247 60.2224 111.518 61.2851 111 62.4529C110.847 62.8077 110.723 63.1746 110.631 63.5498C110.591 63.6867 110.576 63.8296 110.587 63.9717Z" fill="#263238"/>
<path d="M71.0966 71.5121C71.1602 71.0189 71.1766 70.5207 71.1455 70.0244C71.1455 69.1051 71.0878 67.8394 70.9812 66.4405C70.8746 65.0416 70.728 63.7759 70.5993 62.8877C70.5534 62.3935 70.4627 61.9045 70.3283 61.4266C70.3137 61.9227 70.3434 62.4191 70.4172 62.9099C70.5015 63.9003 70.6081 65.1304 70.7192 66.4627C70.8302 67.795 70.8924 69.0341 70.9634 70.0155C70.9665 70.5172 71.0111 71.0178 71.0966 71.5121Z" fill="#263238"/>
<g opacity="0.3">
<path d="M66.8782 73.3292C68.0602 73.056 69.1568 72.4963 70.0713 71.6993C70.9329 70.8511 71.4036 69.4788 70.8751 68.3997C71.7272 70.21 73.0842 71.7356 74.7828 72.7929C76.4814 73.8502 78.4494 74.3942 80.4499 74.3595L63.4897 74.5682C64.5634 74.016 65.7016 73.5998 66.8782 73.3292Z" fill="black"/>
</g>
<g opacity="0.3">
<path d="M109.281 74.5849L109.566 67.99L104.934 74.576L109.281 74.5849Z" fill="black"/>
</g>
<path d="M109.28 74.59C109.238 73.2879 109.272 71.9845 109.382 70.6864C109.417 69.3829 109.527 68.0825 109.711 66.7916C109.753 68.0937 109.718 69.3971 109.609 70.6953C109.574 71.9987 109.464 73.2991 109.28 74.59Z" fill="#263238"/>
<path d="M98.6002 68.8434H135.376L137.477 66.7428H159.837C160.563 66.7428 161.258 67.031 161.772 67.544C162.285 68.0571 162.573 68.7529 162.573 69.4785V73.1734H96.1354L96.0555 71.5346C96.0381 71.1889 96.0909 70.8433 96.2107 70.5186C96.3306 70.1939 96.515 69.8968 96.7528 69.6453C96.9906 69.3938 97.2769 69.1931 97.5944 69.0552C97.9119 68.9174 98.2541 68.8454 98.6002 68.8434Z" fill="#FF5605"/>
<path d="M46.8398 127.317L47.3328 78.3466C47.3457 76.9746 47.8997 75.6633 48.8744 74.6977C49.8491 73.7321 51.1656 73.1905 52.5376 73.1906H165.068C166.442 73.1905 167.759 73.7334 168.734 74.7009C169.709 75.6683 170.262 76.982 170.273 78.3554L170.642 127.317L175.82 148.705V156.348H172.152V178.238C172.149 182.08 170.621 185.763 167.904 188.479C165.187 191.195 161.502 192.72 157.661 192.72H57.627C53.7838 192.72 50.0979 191.193 47.3803 188.476C44.6628 185.758 43.136 182.072 43.136 178.229V155.416H39.4678V148.705L46.8398 127.317Z" fill="#FF5605"/>
<path d="M46.8409 127.318C46.8409 127.318 46.6854 127.793 46.3746 128.712L44.9712 132.816L39.5177 148.723C39.5177 150.828 39.5177 153.07 39.5177 155.447L39.4599 155.394H43.1859V155.416C43.1859 160.199 43.1859 165.479 43.1859 171.221C43.1859 172.657 43.1859 174.121 43.1859 175.614C43.1399 177.13 43.1888 178.647 43.3325 180.157C43.528 181.714 43.9923 183.226 44.7048 184.624C45.4286 186.077 46.3891 187.399 47.547 188.537C50.0029 190.93 53.2337 192.365 56.6555 192.583C57.5437 192.645 58.4319 192.627 59.3201 192.632H67.5049H90.869H143.468H157.679C160.085 192.604 162.449 191.995 164.567 190.855L165.336 190.384L165.722 190.149L166.086 189.878L166.81 189.336L167.481 188.723L167.818 188.417L168.125 188.084L168.737 187.409L169.288 186.681L169.559 186.316C169.648 186.192 169.719 186.059 169.799 185.93L170.274 185.148C170.421 184.882 170.545 184.602 170.678 184.327C170.939 183.774 171.165 183.206 171.358 182.626C171.727 181.453 171.945 180.239 172.006 179.011C172.05 178.398 172.046 177.776 172.046 177.155V171.537C172.046 166.521 172.046 161.459 172.046 156.349V156.233H175.83L175.714 156.349V148.754C175.19 146.583 174.622 144.238 174.053 141.889C172.845 136.915 171.651 131.976 170.536 127.371V127.344C170.416 111.508 170.301 96.0886 170.19 81.2291C170.101 79.3949 170.465 77.4409 169.479 75.8643C169.027 75.0884 168.378 74.4451 167.599 73.9992C166.819 73.5533 165.936 73.3205 165.038 73.3241H133.298L61.3008 73.2575H53.8266C53.2226 73.2575 52.6142 73.2575 52.0502 73.2841C51.4667 73.3454 50.8977 73.5045 50.367 73.7549C49.3169 74.2487 48.4675 75.0872 47.96 76.1308C47.7096 76.6342 47.5459 77.1762 47.4759 77.734C47.4138 78.2891 47.4271 78.8531 47.4182 79.4083C47.4182 80.5274 47.4182 81.6288 47.3827 82.7035C47.359 84.8677 47.3368 86.9609 47.3161 88.983C47.2272 97.0701 47.1517 104.025 47.0896 109.705C47.0274 115.385 46.9697 119.786 46.9341 122.77C46.9341 124.258 46.8986 125.395 46.8897 126.159C46.8808 126.923 46.8897 127.309 46.8897 127.309C46.8897 127.309 46.8897 126.918 46.8897 126.154C46.8897 125.39 46.8897 124.253 46.8897 122.761C46.9164 119.777 46.9519 115.376 47.0008 109.696C47.0496 104.016 47.1162 97.0612 47.1917 88.9742C47.2095 86.955 47.2287 84.8633 47.2495 82.699C47.2495 81.6199 47.2495 80.5229 47.2805 79.4083C47.2805 78.8531 47.2805 78.2891 47.3338 77.7162C47.4479 76.8405 47.7796 76.0074 48.2986 75.2929C48.8176 74.5784 49.5073 74.0053 50.3049 73.6261C50.8505 73.3658 51.436 73.1992 52.0368 73.1331C52.6453 73.0887 53.2404 73.1331 53.8488 73.1065H61.323H133.32H165.016C165.719 73.1012 166.416 73.2351 167.068 73.5006C167.719 73.7661 168.311 74.1578 168.81 74.6532C169.309 75.1485 169.705 75.7378 169.976 76.387C170.246 77.0362 170.385 77.7325 170.385 78.4357C170.385 79.3594 170.385 80.2876 170.407 81.2157C170.518 96.0753 170.638 111.494 170.758 127.327V127.3C171.877 131.91 173.072 136.848 174.275 141.818C174.844 144.171 175.412 146.516 175.941 148.688V156.473H172.157L172.272 156.357V177.177C172.272 177.799 172.272 178.42 172.233 179.047C172.17 180.294 171.949 181.528 171.575 182.719C171.38 183.309 171.148 183.886 170.882 184.447C170.745 184.722 170.62 185.006 170.474 185.282L169.985 186.059C169.905 186.192 169.83 186.325 169.741 186.454L169.466 186.823L168.906 187.564L168.284 188.248L167.974 188.59L167.632 188.897L166.952 189.518L166.215 190.056L165.846 190.331L165.456 190.571L164.669 191.046C162.517 192.198 160.116 192.808 157.675 192.823H143.464H90.8645H67.5004H59.329C58.4408 192.823 57.5526 192.823 56.6644 192.774C53.2042 192.552 49.9379 191.098 47.4582 188.675C46.2898 187.522 45.3191 186.185 44.5849 184.718C43.8692 183.301 43.4021 181.772 43.2037 180.197C43.0619 178.681 43.0144 177.158 43.0616 175.636C43.0616 174.144 43.0616 172.678 43.0616 171.244C43.0616 165.501 43.0616 160.221 43.0616 155.438L43.1193 155.5H39.4155V155.416C39.4155 153.047 39.4155 150.806 39.4155 148.692C41.8181 141.764 43.6656 136.422 44.9179 132.811L46.3435 128.712C46.6721 127.789 46.8409 127.318 46.8409 127.318Z" fill="#263238"/>
<path d="M71.8419 119.045C75.3588 115.229 75.1159 109.284 71.2993 105.767C67.4827 102.25 61.5377 102.493 58.0208 106.309C54.5039 110.126 54.7468 116.071 58.5634 119.588C62.38 123.105 68.325 122.862 71.8419 119.045Z" fill="#E0E0E0"/>
<path d="M74.3303 112.676C74.3167 112.627 74.3092 112.576 74.3081 112.525C74.3081 112.41 74.3081 112.263 74.277 112.081C74.2659 111.839 74.2377 111.599 74.1927 111.361C74.1464 111.036 74.0796 110.714 73.9928 110.398C73.771 109.522 73.4176 108.685 72.9447 107.915C72.329 106.892 71.5224 105.996 70.5688 105.277C69.4161 104.4 68.0726 103.806 66.6474 103.545C65.0117 103.243 63.3251 103.384 61.7623 103.954C61.3469 104.105 60.9419 104.283 60.5499 104.487C60.1543 104.704 59.7745 104.949 59.413 105.22C59.0421 105.491 58.6904 105.788 58.3605 106.108C58.0424 106.447 57.7457 106.806 57.4723 107.182C56.895 107.959 56.4452 108.822 56.14 109.74C55.5064 111.642 55.5064 113.697 56.14 115.598C56.4452 116.516 56.895 117.38 57.4723 118.156C57.7432 118.536 58.04 118.896 58.3605 119.235C58.6927 119.553 59.0442 119.849 59.413 120.124C59.7745 120.394 60.1543 120.639 60.5499 120.856C60.9419 121.06 61.3469 121.238 61.7623 121.389C63.7958 122.128 66.0228 122.137 68.062 121.414C70.1013 120.691 71.8258 119.282 72.9403 117.428C73.4124 116.658 73.7657 115.821 73.9884 114.945C74.0756 114.627 74.1424 114.304 74.1882 113.977C74.2337 113.74 74.2619 113.499 74.2726 113.258C74.2726 113.076 74.2948 112.925 74.3037 112.814C74.3041 112.763 74.3116 112.712 74.3259 112.663C74.3309 112.713 74.3309 112.763 74.3259 112.814C74.3259 112.929 74.3259 113.076 74.3259 113.258C74.326 113.5 74.3052 113.743 74.2637 113.982C74.229 114.313 74.1682 114.641 74.0816 114.963C73.8732 115.853 73.5287 116.705 73.0602 117.49C72.3766 118.648 71.4551 119.647 70.3565 120.422C69.2579 121.196 68.0072 121.729 66.6874 121.984C65.019 122.297 63.2974 122.159 61.7001 121.585C61.2744 121.431 60.8591 121.25 60.4566 121.043C60.0473 120.833 59.6526 120.596 59.2753 120.332C58.8963 120.049 58.5358 119.742 58.1962 119.413C57.8607 119.069 57.5491 118.702 57.2636 118.316C56.6717 117.521 56.2114 116.637 55.9002 115.696C55.2488 113.747 55.2488 111.64 55.9002 109.692C56.2104 108.75 56.6708 107.866 57.2636 107.071C57.5502 106.684 57.8617 106.317 58.1962 105.97C58.5359 105.642 58.8963 105.337 59.2753 105.055C59.6473 104.78 60.0375 104.531 60.4433 104.309C60.8449 104.1 61.2603 103.919 61.6868 103.767C63.2836 103.191 65.0058 103.053 66.674 103.368C67.9925 103.619 69.2423 104.148 70.3403 104.92C71.4384 105.692 72.3595 106.689 73.0424 107.844C73.5109 108.629 73.8554 109.481 74.0639 110.371C74.15 110.692 74.2109 111.018 74.2459 111.348C74.2875 111.589 74.3083 111.832 74.3081 112.076C74.3081 112.263 74.3081 112.41 74.3081 112.521C74.3206 112.572 74.328 112.624 74.3303 112.676Z" fill="#263238"/>
<g opacity="0.3">
<path d="M39.4678 148.706H175.82L170.642 127.323H46.8443L39.4678 148.706Z" fill="black"/>
</g>
<path d="M160.77 98.9881H145.098C144.509 98.9881 143.944 98.7542 143.528 98.3377C143.111 97.9213 142.877 97.3565 142.877 96.7676V81.0776C142.877 80.4886 143.111 79.9238 143.528 79.5074C143.944 79.091 144.509 78.8571 145.098 78.8571H160.77C161.359 78.8571 161.924 79.091 162.34 79.5074C162.757 79.9238 162.991 80.4886 162.991 81.0776V96.7498C162.993 97.0429 162.937 97.3336 162.827 97.605C162.716 97.8765 162.553 98.1234 162.347 98.3315C162.14 98.5395 161.895 98.7047 161.624 98.8174C161.354 98.9301 161.063 98.9881 160.77 98.9881ZM145.098 79.2834C144.627 79.2834 144.175 79.4705 143.842 79.8037C143.509 80.1368 143.322 80.5887 143.322 81.0598V96.7498C143.322 97.221 143.509 97.6728 143.842 98.0059C144.175 98.3391 144.627 98.5262 145.098 98.5262H160.77C161.241 98.5262 161.693 98.3391 162.026 98.0059C162.359 97.6728 162.547 97.221 162.547 96.7498V81.0776C162.547 80.6064 162.359 80.1546 162.026 79.8214C161.693 79.4883 161.241 79.3012 160.77 79.3012L145.098 79.2834Z" fill="#263238"/>
<path d="M161.652 90.9611C162.778 86.1489 159.79 81.3351 154.977 80.209C150.165 79.083 145.351 82.0712 144.225 86.8834C143.099 91.6956 146.088 96.5095 150.9 97.6355C155.712 98.7616 160.526 95.7733 161.652 90.9611Z" fill="#263238"/>
<path d="M79.5166 83.2858H57.4359C55.7657 83.2858 54.4116 84.6398 54.4116 86.3101V91.5949C54.4116 93.2652 55.7657 94.6192 57.4359 94.6192H79.5166C81.1869 94.6192 82.5409 93.2652 82.5409 91.5949V86.3101C82.5409 84.6398 81.1869 83.2858 79.5166 83.2858Z" fill="#FAFAFA"/>
<path d="M79.5168 94.6143C79.7635 94.5934 80.0084 94.5548 80.2495 94.4989C80.9403 94.3152 81.5432 93.8917 81.9504 93.3042C82.2436 92.8851 82.4226 92.3969 82.47 91.8876C82.4967 91.328 82.47 90.7063 82.47 90.0445C82.47 89.3828 82.47 88.6723 82.47 87.9217C82.47 87.5487 82.47 87.1623 82.47 86.7626C82.4893 86.3631 82.4549 85.9628 82.3679 85.5725C82.2602 85.1608 82.0642 84.7776 81.7935 84.4494C81.5228 84.1211 81.1838 83.8558 80.8002 83.6717C80.0053 83.2276 79.0238 83.4097 78.0512 83.3786H71.7894H57.4406C56.832 83.381 56.2393 83.5731 55.745 83.9281C55.2507 84.2831 54.8794 84.7834 54.6827 85.3593C54.5356 85.9392 54.4831 86.539 54.5273 87.1357V90.7329C54.4827 91.3048 54.5277 91.8802 54.6605 92.4382C54.8275 92.9597 55.1375 93.4238 55.5551 93.7779C55.9728 94.1319 56.4814 94.3617 57.0231 94.4411C57.2899 94.4717 57.5586 94.4821 57.8269 94.4722H60.2295H63.2672H68.7251L76.6257 94.5077H78.7707H79.3303C79.3937 94.5011 79.4577 94.5011 79.5212 94.5077H79.3303H78.7707L76.6257 94.5299L68.7251 94.5699H63.2672H57.8225C57.5437 94.5799 57.2645 94.5681 56.9876 94.5344C56.4057 94.451 55.8589 94.2056 55.4097 93.8263C54.9606 93.447 54.6271 92.9491 54.4473 92.3894C54.3587 92.1013 54.3094 91.8025 54.3008 91.5012C54.3008 91.2081 54.3008 90.915 54.3008 90.613V86.2519C54.3089 85.9303 54.3642 85.6115 54.4651 85.306C54.6763 84.6841 55.0767 84.1438 55.6103 83.7608C56.1438 83.3777 56.7838 83.1711 57.4406 83.1699H71.7894H78.0512H79.4946C79.9751 83.1665 80.4497 83.276 80.8802 83.4896C81.2847 83.6871 81.6416 83.97 81.926 84.3189C82.2105 84.6678 82.4158 85.0743 82.5278 85.5103C82.6143 85.9142 82.6472 86.3279 82.6255 86.7404C82.6255 87.1401 82.6255 87.5265 82.6255 87.8995C82.6255 88.6501 82.6255 89.3606 82.6255 90.0223C82.6255 90.684 82.6255 91.2969 82.5988 91.8742C82.5428 92.3996 82.3516 92.9015 82.0437 93.3309C81.6165 93.931 80.9848 94.3543 80.2673 94.5211C80.0237 94.592 79.7703 94.6235 79.5168 94.6143Z" fill="#263238"/>
<path d="M110.636 126.314C124.111 126.314 135.035 115.391 135.035 101.916C135.035 88.4405 124.111 77.5167 110.636 77.5167C97.1605 77.5167 86.2368 88.4405 86.2368 101.916C86.2368 115.391 97.1605 126.314 110.636 126.314Z" fill="#263238"/>
<path d="M110.636 126.55C105.766 126.55 101.005 125.106 96.9565 122.4C92.9075 119.695 89.7518 115.849 87.8884 111.35C86.025 106.851 85.5377 101.9 86.4881 97.124C87.4384 92.3479 89.7838 87.9608 93.2275 84.5177C96.6713 81.0746 101.059 78.73 105.835 77.7805C110.611 76.831 115.562 77.3192 120.061 79.1834C124.559 81.0476 128.404 84.204 131.109 88.2535C133.814 92.303 135.257 97.0636 135.256 101.933C135.249 108.461 132.653 114.718 128.037 119.334C123.421 123.949 117.163 126.544 110.636 126.55ZM110.636 77.7565C105.854 77.7565 101.18 79.1745 97.2036 81.8311C93.2278 84.4876 90.129 88.2635 88.2991 92.6813C86.4692 97.099 85.9904 101.96 86.9233 106.65C87.8562 111.34 90.1588 115.648 93.54 119.029C96.9212 122.41 101.229 124.713 105.919 125.646C110.609 126.578 115.47 126.1 119.888 124.27C124.305 122.44 128.081 119.341 130.738 115.365C133.394 111.389 134.812 106.715 134.812 101.933C134.81 95.5203 132.263 89.3704 127.73 84.8341C123.197 80.2977 117.049 77.7458 110.636 77.7388V77.7565Z" fill="#455A64"/>
<path d="M110.634 124.089C106.16 124.084 101.787 122.754 98.0693 120.264C94.3511 117.775 91.4544 114.24 89.7454 110.105C88.0363 105.969 87.5917 101.42 88.4676 97.0325C89.3435 92.6446 91.5007 88.615 94.6665 85.4529C97.8322 82.2909 101.864 80.1385 106.253 79.2677C110.642 78.3969 115.191 78.847 119.324 80.5609C123.457 82.2748 126.989 85.1756 129.474 88.8967C131.959 92.6178 133.284 96.992 133.284 101.466C133.277 107.469 130.887 113.223 126.64 117.465C122.394 121.706 116.637 124.089 110.634 124.089ZM110.634 79.2836C106.249 79.288 101.963 80.5922 98.3188 83.0313C94.6742 85.4705 91.8344 88.9352 90.1582 92.9877C88.482 97.0402 88.0446 101.499 88.9012 105.8C89.7579 110.1 91.8701 114.051 94.9711 117.152C98.0721 120.253 102.023 122.365 106.324 123.222C110.625 124.079 115.083 123.641 119.135 121.965C123.188 120.289 126.653 117.449 129.092 113.804C131.531 110.16 132.835 105.874 132.839 101.489C132.839 95.5995 130.5 89.9516 126.336 85.7873C122.172 81.6231 116.524 79.2836 110.634 79.2836Z" fill="#455A64"/>
<path d="M110.635 119.875C120.662 119.875 128.79 111.747 128.79 101.72C128.79 91.6935 120.662 83.5653 110.635 83.5653C100.609 83.5653 92.4805 91.6935 92.4805 101.72C92.4805 111.747 100.609 119.875 110.635 119.875Z" fill="#455A64"/>
<path d="M70.0978 117.426C72.7147 114.571 72.5218 110.136 69.667 107.519C66.8121 104.902 62.3763 105.095 59.7594 107.949C57.1424 110.804 57.3353 115.24 60.1902 117.857C63.0451 120.474 67.4809 120.281 70.0978 117.426Z" fill="#FF5605"/>
<path d="M71.9449 112.676C71.8954 112.103 71.8064 111.535 71.6785 110.975C71.5127 110.323 71.2491 109.7 70.8968 109.127C70.4346 108.366 69.8318 107.7 69.1204 107.164C68.2613 106.515 67.2621 106.075 66.2027 105.881C64.9875 105.66 63.7355 105.766 62.5744 106.187C61.9481 106.41 61.3596 106.728 60.8291 107.129C60.5554 107.335 60.2943 107.557 60.0475 107.795C59.8049 108.048 59.5794 108.316 59.3725 108.599C58.5011 109.779 58.031 111.208 58.031 112.676C58.031 114.143 58.5011 115.572 59.3725 116.752C59.578 117.035 59.8036 117.302 60.0475 117.552C60.2922 117.792 60.5534 118.014 60.8291 118.218C61.3585 118.62 61.9473 118.938 62.5744 119.159C64.0864 119.708 65.7419 119.716 67.2588 119.18C68.7756 118.645 70.0598 117.6 70.8924 116.224C71.2442 115.651 71.5077 115.028 71.674 114.376C71.802 113.816 71.891 113.248 71.9405 112.676C71.9405 112.676 71.9405 112.716 71.9405 112.787C71.9405 112.858 71.9405 112.986 71.9405 113.124C71.9408 113.306 71.9259 113.487 71.8961 113.666C71.8682 113.913 71.8237 114.158 71.7628 114.399C71.6071 115.064 71.351 115.702 71.0034 116.291C70.4926 117.157 69.8037 117.905 68.9823 118.485C68.1608 119.066 67.2255 119.465 66.2382 119.657C64.9892 119.896 63.6988 119.793 62.5034 119.359C61.8551 119.132 61.2455 118.807 60.6959 118.396C60.4112 118.186 60.1411 117.958 59.8876 117.712C59.6362 117.452 59.4018 117.176 59.1859 116.886C58.2843 115.664 57.7979 114.185 57.7979 112.667C57.7979 111.148 58.2843 109.67 59.1859 108.448C59.399 108.158 59.6319 107.883 59.8832 107.626C60.1378 107.38 60.4077 107.15 60.6914 106.938C61.241 106.526 61.8506 106.201 62.4989 105.974C63.6952 105.544 64.985 105.443 66.2338 105.681C67.2219 105.871 68.1581 106.269 68.9798 106.85C69.8016 107.43 70.49 108.179 70.999 109.047C71.3472 109.635 71.6034 110.273 71.7584 110.939C71.8192 111.18 71.8638 111.425 71.8916 111.672C71.9215 111.851 71.9363 112.032 71.936 112.214C71.936 112.347 71.936 112.458 71.936 112.547C71.936 112.636 71.9449 112.676 71.9449 112.676Z" fill="#263238"/>
<path d="M67.9215 107.6C67.5273 107.409 67.1208 107.244 66.7047 107.107C65.5576 106.763 64.3335 106.772 63.1918 107.134C62.3539 107.405 61.5882 107.862 60.9522 108.471C60.3161 109.08 59.8262 109.826 59.5191 110.651C59.3417 111.125 59.2282 111.621 59.1816 112.125C59.1345 112.652 59.1584 113.182 59.2527 113.702C59.4512 114.799 59.9632 115.816 60.7269 116.628C61.4905 117.441 62.4731 118.015 63.556 118.281C64.566 118.528 65.6236 118.502 66.6203 118.205C67.518 117.927 68.3369 117.44 69.0095 116.784C69.5907 116.208 70.0446 115.517 70.3418 114.755C70.7749 113.638 70.8615 112.417 70.5905 111.251C70.5147 110.935 70.4168 110.625 70.2974 110.322C70.2481 110.219 70.2066 110.112 70.1731 110.003C70.191 110.027 70.2073 110.052 70.2219 110.078C70.2486 110.127 70.2885 110.203 70.3374 110.305C70.4807 110.601 70.5952 110.91 70.6793 111.228C70.988 112.414 70.9229 113.665 70.4928 114.812C70.1942 115.603 69.7327 116.321 69.1383 116.922C68.446 117.606 67.6013 118.116 66.6736 118.409C65.6408 118.724 64.5425 118.755 63.4938 118.498C62.3655 118.228 61.3415 117.632 60.5494 116.784C59.7558 115.939 59.2236 114.883 59.0173 113.742C58.9246 113.201 58.9022 112.65 58.9507 112.103C59.1012 110.599 59.8152 109.208 60.9491 108.209C61.5802 107.646 62.3256 107.226 63.1341 106.978C64.3056 106.62 65.5592 106.634 66.7224 107.018C67.0305 107.123 67.3279 107.257 67.6106 107.418L67.8327 107.547L67.9215 107.6Z" fill="#263238"/>
<path d="M170.643 127.317C170.643 127.384 142.926 127.437 108.748 127.437C74.5704 127.437 46.8408 127.384 46.8408 127.317C46.8408 127.251 74.5482 127.202 108.744 127.202C142.94 127.202 170.643 127.255 170.643 127.317Z" fill="#263238"/>
<path d="M174.466 156.375H174.124H173.125H169.283H155.157C143.228 156.331 126.734 156.18 108.553 155.971C90.3713 155.762 73.8641 155.585 61.9222 155.505L47.7998 155.416L43.9584 155.389H47.7998H61.9267C73.8552 155.429 90.3491 155.58 108.557 155.789C126.765 155.998 143.232 156.175 155.161 156.26L169.288 156.349L173.129 156.375H174.129H174.466Z" fill="#263238"/>
<path d="M160.836 175.787H54.4521V181.543H160.836V175.787Z" fill="#263238"/>
<path d="M56.81 178.664L49.0249 199.848H167.32L158.336 178.664H56.81Z" fill="white"/>
<path d="M56.8105 178.665C56.8105 178.665 56.9748 178.665 57.3034 178.665H58.7689H64.4534L85.6681 178.634L158.336 178.585H158.412L158.438 178.656C161.329 185.464 164.34 192.565 167.427 199.84L167.493 200H159.162L49.0254 199.951H48.9321L48.9632 199.862L54.7365 184.247L56.2731 180.113C56.4463 179.669 56.5795 179.296 56.6684 179.051C56.7572 178.807 56.806 178.701 56.806 178.701C56.806 178.701 56.7661 178.825 56.6817 179.069L56.2953 180.139L54.7898 184.283C53.4575 187.911 51.5301 193.205 49.0876 199.893L49.0298 199.809L159.167 199.755H167.325L167.218 199.915C164.132 192.641 161.125 185.54 158.238 178.732L158.341 178.798L85.7347 178.749L64.4978 178.718H58.7956H57.3212L56.8105 178.665Z" fill="#263238"/>
<g opacity="0.3">
<path d="M122.271 110.117C122.049 107.834 120.05 107.008 118.172 106.768C114.215 106.213 109.734 107.345 106.483 105.036C105.446 104.273 104.654 103.225 104.203 102.019C103.752 100.813 103.661 99.5021 103.943 98.2458C104.387 96.3406 105.719 94.2489 104.427 92.6413C104.176 92.3427 103.864 92.1005 103.513 91.9306C103.162 91.7607 102.779 91.6669 102.389 91.6554C101.647 91.6358 100.912 91.7877 100.239 92.0995C98.7855 92.7409 97.6035 93.8726 96.8995 95.297C95.2614 98.6687 94.9615 102.536 96.0602 106.12C96.7312 108.354 97.8957 110.408 99.4677 112.132C101.04 113.855 102.979 115.203 105.142 116.076C107.318 116.916 109.652 117.271 111.979 117.118C114.307 116.965 116.573 116.306 118.62 115.188C120.161 114.34 121.614 113.185 122.133 111.418C122.26 110.997 122.307 110.555 122.271 110.117Z" fill="white"/>
</g>
<g opacity="0.3">
<path d="M112.288 89.2097C112.289 89.5781 112.18 89.9385 111.976 90.2452C111.772 90.5519 111.482 90.7911 111.141 90.9325C110.801 91.0738 110.427 91.1111 110.065 91.0394C109.704 90.9678 109.372 90.7904 109.111 90.5299C108.851 90.2694 108.674 89.9375 108.602 89.5761C108.53 89.2147 108.568 88.8402 108.709 88.5C108.85 88.1598 109.089 87.8693 109.396 87.6651C109.703 87.461 110.063 87.3525 110.432 87.3534C110.924 87.3534 111.396 87.549 111.744 87.8971C112.092 88.2452 112.288 88.7174 112.288 89.2097Z" fill="white"/>
</g>
<path d="M104.223 117.765C104.114 117.734 104.01 117.691 103.912 117.636C103.716 117.539 103.414 117.419 103.055 117.192C102.016 116.627 101.04 115.954 100.141 115.185C98.8049 114.044 97.6424 112.714 96.6907 111.237C94.3028 107.598 93.3839 103.189 94.1194 98.8998C94.3996 97.173 94.9292 95.496 95.6915 93.9214C96.2064 92.8582 96.8316 91.8519 97.5567 90.9193C97.8054 90.5862 98.0363 90.3553 98.1784 90.1865C98.2492 90.0995 98.3264 90.0178 98.4094 89.9423C98.3521 90.0394 98.2867 90.1315 98.2139 90.2176C98.0852 90.3952 97.8676 90.6306 97.6322 90.977C96.9425 91.9214 96.3475 92.9314 95.8558 93.9925C95.1132 95.5646 94.6002 97.2351 94.3325 98.953C93.6272 103.19 94.5335 107.537 96.8728 111.139C97.8055 112.606 98.9419 113.932 100.248 115.078C101.13 115.853 102.084 116.54 103.099 117.13C103.45 117.352 103.747 117.481 103.934 117.574C104.036 117.628 104.133 117.692 104.223 117.765Z" fill="white"/>
<path d="M111.754 118.946C111.132 119.025 110.503 119.025 109.88 118.946C109.252 118.948 108.626 118.875 108.015 118.729C108.639 118.649 109.27 118.649 109.894 118.729C110.52 118.726 111.145 118.799 111.754 118.946Z" fill="white"/>
<path d="M127.56 104.184C127.512 104.184 127.716 103.296 127.782 101.888C127.782 101.529 127.805 101.142 127.782 100.725C127.76 100.307 127.729 99.8587 127.685 99.3924C127.44 97.366 126.807 95.4057 125.82 93.6191C125.58 93.215 125.375 92.8198 125.122 92.4822C124.869 92.1447 124.678 91.8205 124.438 91.5363C123.55 90.4216 122.884 89.8398 122.915 89.8043C123.089 89.9181 123.25 90.0506 123.395 90.1996C123.58 90.3591 123.755 90.5297 123.919 90.7103C124.114 90.9235 124.363 91.1544 124.567 91.4342C124.82 91.7344 125.057 92.0471 125.278 92.3712C125.531 92.7132 125.757 93.1084 126.006 93.5126C127.028 95.3192 127.67 97.3155 127.893 99.3791C127.942 99.8216 127.969 100.266 127.973 100.711C127.986 101.104 127.976 101.497 127.942 101.888C127.925 102.211 127.891 102.533 127.84 102.852C127.813 103.094 127.771 103.334 127.716 103.571C127.681 103.78 127.629 103.985 127.56 104.184Z" fill="white"/>
<g opacity="0.3">
<path d="M43.1362 155.435V161.501H172.152V156.35L43.1362 155.435Z" fill="black"/>
</g>
<path d="M60.2784 178.664L54.2031 197.214H162.142L155.107 178.664H60.2784Z" fill="#455A64"/>
<path d="M158.811 178.665C158.811 178.727 135.86 178.781 107.562 178.781C79.2641 178.781 56.3086 178.727 56.3086 178.665C56.3086 178.603 79.2508 178.55 107.562 178.55C135.874 178.55 158.811 178.599 158.811 178.665Z" fill="#263238"/>
<path d="M157.719 86.3449L165.588 88.5166L159.775 89.9377C156.804 90.4129 155.476 91.6874 154.939 93.3439L153.122 107.999L150.902 93.3439C150.628 92.6612 150.213 92.0441 149.684 91.5328C149.155 91.0216 148.524 90.6279 147.833 90.3774L140.283 88.5343L148.25 86.2783C148.908 86.0079 149.504 85.6061 150.001 85.0976C150.498 84.589 150.886 83.9844 151.141 83.3206L153.127 66.7379L154.552 82.9609C154.784 83.7307 155.19 84.4367 155.739 85.0237C156.288 85.6107 156.966 86.0629 157.719 86.3449Z" fill="white"/>
<path d="M161.773 106.48L163.607 106.987L162.253 107.32C161.56 107.431 161.253 107.728 161.125 108.11L160.703 111.521L160.183 108.106C160.12 107.947 160.023 107.803 159.9 107.684C159.777 107.566 159.629 107.475 159.468 107.417L157.714 106.973L159.57 106.449C159.722 106.385 159.86 106.291 159.976 106.173C160.091 106.055 160.181 105.915 160.241 105.761L160.685 101.902L161.018 105.676C161.071 105.861 161.168 106.029 161.299 106.169C161.43 106.309 161.593 106.416 161.773 106.48Z" fill="white"/>
<path d="M134.59 68.8966C134.59 68.8966 133 66.7339 132.218 66.3208C131.437 65.9078 130.353 65.9256 129.882 66.3519L129.407 66.796C129.407 66.796 126.938 65.6902 125.748 66.5429C125.748 66.5429 123.399 65.4326 122.275 66.7028C122.275 66.7028 120.463 65.5259 119.699 66.5518C118.935 67.5776 119.011 69.3185 119.384 70.2112C119.757 71.1038 120.445 74.1548 120.987 74.2081C120.987 74.2081 122.43 74.359 122.626 73.5819C122.821 72.8047 122.897 72.4228 122.897 72.4228C122.897 72.4228 123.452 75.1851 124.114 75.3227C124.775 75.4604 126.045 75.3849 126.09 74.1725C126.09 74.1725 126.707 75.0874 127.311 74.8209C127.915 74.5545 128.643 74.1148 128.59 73.3643C128.537 72.6137 128.515 71.8676 128.515 71.8676C128.515 71.8676 128.843 72.9601 129.403 72.7203C129.962 72.4805 130.495 72.5338 130.802 71.6101C131.108 70.6863 131.868 68.9188 131.868 68.9188L134.59 68.8966Z" fill="#FFBE9D"/>
<path d="M128.555 71.7826C128.591 71.7826 128.444 71.485 128.32 71.001C128.153 70.378 128.126 69.7261 128.24 69.0913C128.36 68.4509 128.62 67.8446 128.999 67.3149C129.292 66.9108 129.523 66.6976 129.501 66.671C129.479 66.6443 129.203 66.8176 128.866 67.2084C128.426 67.7302 128.129 68.3574 128.005 69.0285C127.88 69.6996 127.932 70.3915 128.155 71.0365C128.225 71.3142 128.363 71.5704 128.555 71.7826Z" fill="#EB996E"/>
<path d="M125.597 66.5341C125.437 66.8787 125.331 67.2456 125.281 67.6221C125.111 68.5218 125.054 69.4394 125.113 70.3533C125.176 71.2606 125.355 72.1561 125.646 73.0179C125.739 73.3837 125.889 73.7327 126.09 74.0527C125.719 72.8351 125.467 71.5842 125.339 70.3178C125.3 69.0511 125.387 67.7838 125.597 66.5341Z" fill="#EB996E"/>
<path d="M122.217 66.7159C122.046 67.6815 122.034 68.6687 122.182 69.6381C122.256 70.6161 122.491 71.575 122.879 72.4759C122.95 72.4537 122.599 71.1969 122.435 69.6115C122.27 68.026 122.293 66.7204 122.217 66.7159Z" fill="#EB996E"/>
<path d="M112.5 67.3377C112.56 67.2124 112.646 67.102 112.754 67.0144C112.861 66.9268 112.987 66.8643 113.122 66.8315C113.435 66.7644 113.759 66.7729 114.068 66.8563C114.377 66.9397 114.662 67.0956 114.898 67.3111C115.423 67.777 115.872 68.3207 116.231 68.9232L112.731 68.901C112.758 68.3725 112.305 67.8351 112.5 67.3377Z" fill="#FFBE9D"/>
<path d="M42.8078 98.8863C44.7383 99.2112 46.6847 99.4336 48.6388 99.5525L53.2219 102.661L56.1263 106.48C55.7178 107.315 53.8037 106.96 53.8037 106.96L51.0636 104.531L48.9941 104.087L49.8823 105.601L54.1012 108.497L55.1138 109.354C55.1138 109.354 57.8139 110.881 58.7687 111.574C59.8124 112.325 60.1987 112.951 59.8834 113.377C59.5015 113.884 58.5112 113.821 57.9338 113.555L52.7956 111.552C52.7956 111.552 50.5751 112.609 49.4293 112.525C48.2835 112.44 46.3206 112.081 46.3206 112.081L44.9883 112.871C44.8624 113.006 44.6952 113.095 44.5131 113.124C44.0786 113.223 43.6267 113.218 43.1945 113.11C42.7622 113.001 42.3619 112.791 42.0262 112.498L38.8775 109.833C38.1847 109.252 36.959 107.511 35.8843 105.885C35.2266 104.898 34.8045 103.772 34.6505 102.596C34.4965 101.419 34.6147 100.223 34.9961 99.0995C35.318 98.2177 35.8297 97.4173 36.495 96.755C37.1604 96.0927 37.9631 95.5847 38.8464 95.2669L47.1688 83.9779L47.1244 99.4592" fill="#FFBE9D"/>
<path d="M47.9102 109.532C48.6012 110.1 49.3856 110.543 50.2284 110.842C51.0409 111.217 51.9124 111.449 52.8041 111.526C52.8041 111.455 51.6717 111.166 50.3216 110.611C48.9716 110.056 47.9501 109.47 47.9102 109.532Z" fill="#EB996E"/>
<path d="M44.8554 111.45C44.8154 111.521 45.4238 111.827 46.1877 112.027C46.6513 112.196 47.1424 112.276 47.6354 112.263C47.2003 112.035 46.7331 111.875 46.2499 111.787C45.795 111.637 45.3286 111.524 44.8554 111.45Z" fill="#EB996E"/>
<path d="M56.233 109.949C55.8327 109.636 55.4146 109.347 54.9806 109.083C54.2035 108.554 53.1421 107.812 51.9963 106.951C51.4234 106.507 50.8816 106.107 50.3975 105.721C49.9591 105.403 49.5739 105.018 49.2562 104.579C48.9812 104.164 48.8388 103.674 48.8476 103.176C48.7856 103.303 48.7609 103.444 48.7766 103.585C48.7912 103.97 48.906 104.345 49.1096 104.673C49.416 105.144 49.8023 105.559 50.251 105.898C50.735 106.294 51.2724 106.72 51.8497 107.151C52.9999 108.012 54.0702 108.741 54.8874 109.229C55.3076 109.518 55.759 109.76 56.233 109.949Z" fill="#EB996E"/>
<path d="M49.3579 104.069C49.3579 104.109 49.731 104.171 50.295 104.393C51.0292 104.69 51.6889 105.145 52.2268 105.726C52.504 106.076 52.8149 106.399 53.155 106.689C53.4603 106.921 53.8256 107.059 54.2075 107.089C54.544 107.14 54.8879 107.111 55.2112 107.005C55.2112 106.96 54.8248 107.005 54.2297 106.911C53.8885 106.864 53.5663 106.726 53.2971 106.512C52.9762 106.217 52.6792 105.898 52.4089 105.557C51.8478 104.945 51.1401 104.487 50.3527 104.225C50.0379 104.095 49.6971 104.042 49.3579 104.069Z" fill="#EB996E"/>
<path d="M48.1725 99.5304C48.1725 99.4549 46.103 99.3349 43.6205 98.9175C41.138 98.5 39.1795 97.9804 39.1528 98.0781C39.5464 98.2445 39.9535 98.3767 40.3697 98.4734C41.1513 98.6866 42.2704 98.9486 43.5361 99.1573C45.0632 99.4514 46.618 99.5765 48.1725 99.5304Z" fill="#EB996E"/>
</svg>
