<svg width="340" height="247" viewBox="0 0 340 247" fill="none" xmlns="http://www.w3.org/2000/svg">
<path d="M340 217.06H0V217.226H340V217.06Z" fill="#EBEBEB"/>
<path d="M305.932 227.727H283.411V227.893H305.932V227.727Z" fill="#EBEBEB"/>
<path d="M225.23 229.531H219.32V229.697H225.23V229.531Z" fill="#EBEBEB"/>
<path d="M282.73 221.575H269.681V221.74H282.73V221.575Z" fill="#EBEBEB"/>
<path d="M65.0421 222.688H35.6729V222.854H65.0421V222.688Z" fill="#EBEBEB"/>
<path d="M75.405 222.688H71.1006V222.854H75.405V222.688Z" fill="#EBEBEB"/>
<path d="M153.102 225.486H89.3994V225.652H153.102V225.486Z" fill="#EBEBEB"/>
<path d="M161.16 187.491H29.8589C28.8303 187.489 27.8444 187.09 27.1178 186.38C26.3911 185.67 25.9829 184.708 25.9829 183.705V3.75247C25.9919 2.75536 26.404 1.80197 27.1297 1.09937C27.8554 0.396766 28.8362 0.00170809 29.8589 0H161.16C162.19 0 163.178 0.398841 163.906 1.10878C164.634 1.81872 165.043 2.78161 165.043 3.78562V183.705C165.043 184.709 164.634 185.672 163.906 186.382C163.178 187.092 162.19 187.491 161.16 187.491ZM29.8589 0.132597C28.8754 0.134353 27.9328 0.516505 27.238 1.19517C26.5431 1.87384 26.1529 2.79357 26.1529 3.75247V183.705C26.1529 184.664 26.5431 185.584 27.238 186.263C27.9328 186.941 28.8754 187.323 29.8589 187.325H161.16C162.144 187.323 163.088 186.941 163.783 186.263C164.479 185.585 164.871 184.665 164.873 183.705V3.75247C164.871 2.79296 164.479 1.87325 163.783 1.19477C163.088 0.51629 162.144 0.134349 161.16 0.132597H29.8589Z" fill="#EBEBEB"/>
<path d="M308.251 187.491H176.943C175.914 187.489 174.927 187.09 174.199 186.38C173.472 185.671 173.062 184.709 173.06 183.705V3.75247C173.071 2.75476 173.484 1.80137 174.211 1.09895C174.938 0.396534 175.919 0.00168947 176.943 0H308.251C309.272 0.00345048 310.251 0.399279 310.976 1.10169C311.7 1.80411 312.111 2.75651 312.12 3.75247V183.705C312.12 184.707 311.713 185.668 310.988 186.377C310.262 187.087 309.278 187.487 308.251 187.491ZM176.943 0.132597C175.959 0.134349 175.015 0.51629 174.319 1.19477C173.624 1.87325 173.232 2.79296 173.23 3.75247V183.705C173.232 184.665 173.624 185.585 174.319 186.263C175.015 186.941 175.959 187.323 176.943 187.325H308.251C309.235 187.323 310.178 186.941 310.874 186.263C311.57 185.585 311.962 184.665 311.964 183.705V3.75247C311.962 2.79296 311.57 1.87325 310.874 1.19477C310.178 0.51629 309.235 0.134349 308.251 0.132597H176.943Z" fill="#EBEBEB"/>
<path d="M121.815 124.435L279.364 124.435V22.2896L121.815 22.2896V124.435Z" fill="#E6E6E6"/>
<path d="M119.374 124.435L276.923 124.435V22.2896L119.374 22.2896V124.435Z" fill="#F5F5F5"/>
<path d="M272.544 119.635V27.0762L123.746 27.0762V119.635L272.544 119.635Z" fill="white"/>
<path d="M125.596 119.641V27.0825H123.753V119.641H125.596Z" fill="#E6E6E6"/>
<path d="M121.183 97.2988L275.114 97.2988V90.8613L121.183 90.8613V97.2988Z" fill="#F5F5F5"/>
<g opacity="0.4">
<path d="M129.356 17.2441H114.485V103.657H129.356V17.2441Z" fill="#E6E6E6"/>
<path d="M129.363 96.7158H136.734V17.2444H129.363V96.7158Z" fill="#F5F5F5"/>
<path d="M151.606 17.2441H136.734V103.657H151.606V17.2441Z" fill="#E6E6E6"/>
<path d="M151.613 96.7158H158.984V17.2444H151.613V96.7158Z" fill="#F5F5F5"/>
<path d="M173.855 17.2441H158.984V103.657H173.855V17.2441Z" fill="#E6E6E6"/>
<path d="M173.862 96.7158H181.233V17.2444H173.862V96.7158Z" fill="#F5F5F5"/>
<path d="M196.105 17.2441H181.233V103.657H196.105V17.2441Z" fill="#E6E6E6"/>
<path d="M196.112 96.7158H203.483V17.2444H196.112V96.7158Z" fill="#F5F5F5"/>
<path d="M218.355 17.2441H203.483V103.657H218.355V17.2441Z" fill="#E6E6E6"/>
<path d="M218.355 96.7158H225.726V17.2444H218.355V96.7158Z" fill="#F5F5F5"/>
<path d="M240.598 17.2441H225.726V103.657H240.598V17.2441Z" fill="#E6E6E6"/>
<path d="M240.604 96.7158H247.976V17.2444H240.604V96.7158Z" fill="#F5F5F5"/>
<path d="M262.847 17.2441H247.976V103.657H262.847V17.2441Z" fill="#E6E6E6"/>
<path d="M262.854 96.7158H270.225V17.2444H262.854V96.7158Z" fill="#F5F5F5"/>
<path d="M285.097 17.2441H270.225V103.657H285.097V17.2441Z" fill="#E6E6E6"/>
</g>
<path d="M56.2971 217.06H91.1743L91.1743 147.182H56.2971L56.2971 217.06Z" fill="#EBEBEB"/>
<path d="M62.9206 217.06H56.2974V202.826H69.8702L62.9206 217.06Z" fill="#F5F5F5"/>
<path d="M255.292 217.06H290.169V147.182H255.292V217.06Z" fill="#EBEBEB"/>
<path d="M56.2972 208.329L261.072 208.329V147.182L56.2972 147.182V208.329Z" fill="#F5F5F5"/>
<path d="M254.266 191.078H193.562C193.414 191.078 193.272 191.02 193.168 190.918C193.063 190.816 193.004 190.678 193.004 190.534V151.823C193.004 151.678 193.063 151.54 193.168 151.438C193.272 151.336 193.414 151.279 193.562 151.279H204.768C204.889 151.276 205.006 151.314 205.102 151.385C206.767 152.572 208.615 153.496 210.576 154.123C212.94 154.886 215.415 155.271 217.906 155.263H229.915C234.508 155.342 239.008 153.99 242.76 151.405C242.853 151.335 242.968 151.297 243.086 151.299H254.3C254.447 151.299 254.589 151.356 254.694 151.458C254.798 151.56 254.857 151.698 254.857 151.842V190.534C254.857 190.608 254.842 190.682 254.812 190.75C254.782 190.818 254.737 190.88 254.682 190.931C254.627 190.982 254.561 191.021 254.489 191.046C254.418 191.071 254.342 191.082 254.266 191.078ZM194.12 189.99H253.708V152.386H243.236C239.332 155.039 234.673 156.43 229.915 156.364H217.906C215.295 156.372 212.7 155.967 210.222 155.164C208.211 154.521 206.312 153.582 204.592 152.379H194.12V189.99Z" fill="#E6E6E6"/>
<path d="M189.04 191.078H128.33C128.182 191.078 128.04 191.02 127.935 190.918C127.831 190.816 127.772 190.678 127.772 190.534V151.823C127.772 151.678 127.831 151.54 127.935 151.438C128.04 151.336 128.182 151.279 128.33 151.279H138.931C139.051 151.276 139.168 151.314 139.264 151.385C140.918 152.572 142.754 153.496 144.704 154.123C147.068 154.886 149.544 155.271 152.034 155.263H164.043C168.621 155.329 173.102 153.971 176.834 151.385C176.93 151.316 177.047 151.278 177.167 151.279H189.04C189.113 151.278 189.186 151.291 189.254 151.318C189.322 151.346 189.384 151.386 189.436 151.436C189.488 151.487 189.529 151.547 189.557 151.613C189.585 151.68 189.598 151.751 189.598 151.823V190.514C189.6 190.587 189.588 190.66 189.561 190.728C189.534 190.797 189.494 190.859 189.442 190.911C189.39 190.964 189.327 191.006 189.258 191.034C189.189 191.063 189.115 191.078 189.04 191.078ZM128.894 189.99H188.482V152.386H177.385C173.485 155.038 168.831 156.429 164.077 156.364H152.068C149.457 156.372 146.862 155.967 144.384 155.164C142.369 154.525 140.468 153.585 138.747 152.379H128.887L128.894 189.99Z" fill="#E6E6E6"/>
<path d="M123.808 191.078H63.104C62.9561 191.078 62.8143 191.02 62.7097 190.918C62.6052 190.816 62.5464 190.678 62.5464 190.534V151.823C62.5455 151.751 62.5593 151.68 62.587 151.613C62.6147 151.547 62.6557 151.487 62.7077 151.436C62.7597 151.386 62.8215 151.346 62.8896 151.318C62.9576 151.291 63.0306 151.278 63.104 151.279H73.7052C73.8232 151.277 73.9382 151.315 74.0316 151.385C75.6871 152.569 77.5227 153.493 79.4716 154.123C81.8383 154.886 84.316 155.271 86.8088 155.263H98.8176C103.4 155.328 107.884 153.97 111.622 151.385C111.718 151.314 111.835 151.276 111.955 151.279H123.774C123.922 151.279 124.063 151.336 124.168 151.438C124.273 151.54 124.331 151.678 124.331 151.823V190.514C124.337 190.656 124.285 190.795 124.187 190.9C124.089 191.005 123.953 191.069 123.808 191.078ZM63.6616 189.99H123.25V152.386H112.2C108.298 155.038 103.641 156.429 98.8856 156.364H86.8428C84.2317 156.373 81.6364 155.968 79.1588 155.164C77.1438 154.525 75.2422 153.585 73.5216 152.379H63.6616V189.99Z" fill="#E6E6E6"/>
<path d="M254.449 217.06H261.072V202.826H247.506L254.449 217.06Z" fill="#F5F5F5"/>
<path d="M97.879 135.474H92.3778C92.4186 131.761 92.3778 122.333 91.9902 100.74C91.3102 61.6242 90.0386 59.2109 90.0386 59.2109L96.5598 78.5302C98.1082 83.0737 99.0097 87.8029 99.239 92.5854C99.9598 107.648 97.2398 119.675 97.879 135.474Z" fill="#E6E6E6"/>
<path d="M102.061 72.7023C109.398 61.8759 124.046 56.2273 139.019 50.9102C144.894 48.8218 128.398 74.7244 116.402 86.4724C107.086 95.5951 98.0424 95.3895 95.37 104.373C94.8532 93.9376 95.7372 82.0305 102.061 72.7023Z" fill="#E6E6E6"/>
<path d="M93.6565 65.7545C87.9037 53.0915 73.3721 36.6695 57.0385 25.1005C50.6261 20.5591 66.4497 59.5755 77.6085 75.5268C86.2989 87.9643 94.4045 95.5355 95.6693 104.406C101.15 93.3079 99.4025 78.4108 93.6565 65.7545Z" fill="#E6E6E6"/>
<path d="M94.2005 147.182C97.3104 147.182 100.302 146.022 102.563 143.94C104.824 141.858 106.182 139.011 106.359 135.984L107.44 125.25H80.9609L82.0353 135.984C82.2141 139.012 83.5737 141.858 85.8355 143.94C88.0973 146.022 91.09 147.182 94.2005 147.182Z" fill="#F0F0F0"/>
<path d="M79.2474 125.31H109.154L110.011 121.498H78.3906L79.2474 125.31Z" fill="#F0F0F0"/>
<path d="M80.723 131.847H107.678L108.453 128.035H79.9478L80.723 131.847Z" fill="#F0F0F0"/>
<path d="M170 247C242.816 247 301.845 243.64 301.845 239.495C301.845 235.35 242.816 231.99 170 231.99C97.1839 231.99 38.1548 235.35 38.1548 239.495C38.1548 243.64 97.1839 247 170 247Z" fill="#F5F5F5"/>
<path d="M275.59 174.583H64.4028V197.893H275.59V174.583Z" fill="#FF7938"/>
<path opacity="0.3" d="M275.597 174.583H230.295V197.893H275.597V174.583Z" fill="black"/>
<path d="M87.72 197.893H64.4028V239.495H87.72V197.893Z" fill="#FF7938"/>
<path opacity="0.3" d="M64.4097 197.893V200.22L80.9201 205.08V239.495H87.7201V197.893H64.4097Z" fill="black"/>
<path d="M275.597 197.893H252.28V239.495H275.597V197.893Z" fill="#FF7938"/>
<path opacity="0.2" d="M275.597 197.893H252.28V239.495H275.597V197.893Z" fill="black"/>
<path opacity="0.3" d="M252.28 197.893V200.22L268.797 205.08V239.495H275.597V197.893H252.28Z" fill="black"/>
<path d="M230.296 197.893H206.979V239.495H230.296V197.893Z" fill="#FF7938"/>
<path opacity="0.3" d="M206.979 197.893V200.22L223.496 205.08V239.495H230.296V197.893H206.979Z" fill="black"/>
<path d="M133.022 197.893H109.705V239.495H133.022V197.893Z" fill="#FF7938"/>
<path opacity="0.2" d="M133.022 197.893H109.705V239.495H133.022V197.893Z" fill="black"/>
<path opacity="0.3" d="M109.705 197.893V200.22L126.222 205.08V239.495H133.022V197.893H109.705Z" fill="black"/>
<path d="M246.487 170.002H117.368C116.966 170.005 116.567 169.926 116.198 169.771C115.828 169.616 115.495 169.388 115.22 169.102C114.946 168.815 114.735 168.476 114.601 168.106C114.468 167.736 114.414 167.343 114.444 166.952L119.762 84.6826C119.829 83.8626 120.207 83.0963 120.821 82.5327C121.436 81.9691 122.243 81.6484 123.087 81.6329H252.199C252.601 81.63 253 81.7084 253.369 81.8633C253.739 82.0181 254.072 82.2461 254.346 82.5326C254.621 82.8192 254.832 83.1583 254.966 83.5283C255.099 83.8984 255.153 84.2914 255.123 84.6826L249.805 166.952C249.738 167.771 249.361 168.536 248.748 169.1C248.135 169.663 247.329 169.984 246.487 170.002Z" fill="#263238"/>
<path opacity="0.6" d="M246.487 170.002H117.368C116.966 170.005 116.567 169.926 116.198 169.771C115.828 169.616 115.495 169.388 115.22 169.102C114.946 168.815 114.735 168.476 114.601 168.106C114.468 167.736 114.414 167.343 114.444 166.952L119.762 84.6826C119.829 83.8626 120.207 83.0963 120.821 82.5327C121.436 81.9691 122.243 81.6484 123.087 81.6329H252.199C252.601 81.63 253 81.7084 253.369 81.8633C253.739 82.0181 254.072 82.2461 254.346 82.5326C254.621 82.8192 254.832 83.1583 254.966 83.5283C255.099 83.8984 255.153 84.2914 255.123 84.6826L249.805 166.952C249.738 167.771 249.361 168.536 248.748 169.1C248.135 169.663 247.329 169.984 246.487 170.002Z" fill="black"/>
<path d="M245.521 170.001H116.409C116.006 170.005 115.607 169.927 115.236 169.773C114.866 169.618 114.532 169.391 114.257 169.104C113.981 168.817 113.77 168.478 113.636 168.107C113.502 167.737 113.448 167.343 113.478 166.951L118.796 84.6822C118.863 83.8622 119.241 83.0959 119.856 82.5323C120.47 81.9687 121.278 81.6479 122.121 81.6325H251.233C251.635 81.6285 252.035 81.7063 252.405 81.8608C252.775 82.0153 253.108 82.2432 253.383 82.5301C253.658 82.8169 253.869 83.1563 254.002 83.5268C254.135 83.8973 254.188 84.2907 254.157 84.6822L248.839 166.951C248.772 167.77 248.395 168.536 247.782 169.099C247.169 169.663 246.363 169.984 245.521 170.001Z" fill="#263238"/>
<path d="M245.358 171.049H91.7254C91.0181 171.043 90.3235 171.232 89.7218 171.594C89.1201 171.957 88.636 172.478 88.3254 173.098C88.2467 173.258 88.2114 173.436 88.2228 173.614C88.2343 173.792 88.2921 173.964 88.3908 174.114C88.4895 174.264 88.6259 174.387 88.787 174.471C88.9481 174.556 89.1286 174.599 89.3114 174.596H247.738C247.921 174.599 248.101 174.556 248.262 174.471C248.423 174.387 248.56 174.264 248.658 174.114C248.757 173.964 248.815 173.792 248.826 173.614C248.838 173.436 248.802 173.258 248.724 173.098C248.417 172.482 247.938 171.964 247.343 171.601C246.748 171.239 246.06 171.047 245.358 171.049Z" fill="#263238"/>
<path opacity="0.6" d="M245.358 171.049H223.509C222.807 171.047 222.119 171.238 221.523 171.6C220.928 171.962 220.449 172.482 220.143 173.097C220.065 173.258 220.029 173.435 220.041 173.612C220.052 173.79 220.109 173.961 220.207 174.111C220.305 174.261 220.44 174.384 220.6 174.469C220.761 174.554 220.94 174.597 221.122 174.596H247.738C247.92 174.598 248.101 174.556 248.262 174.471C248.423 174.387 248.559 174.264 248.658 174.114C248.757 173.964 248.815 173.792 248.826 173.614C248.838 173.436 248.802 173.258 248.724 173.097C248.417 172.482 247.938 171.963 247.343 171.601C246.748 171.239 246.059 171.047 245.358 171.049Z" fill="black"/>
<path d="M231.812 173.634H226.168C226.038 173.633 225.913 173.581 225.822 173.49C225.73 173.4 225.679 173.278 225.679 173.15C225.679 173.023 225.73 172.901 225.822 172.811C225.913 172.72 226.038 172.668 226.168 172.667H231.812C231.877 172.667 231.942 172.679 232.002 172.703C232.062 172.728 232.117 172.763 232.163 172.808C232.209 172.853 232.246 172.907 232.271 172.965C232.296 173.024 232.309 173.087 232.309 173.15C232.309 173.214 232.296 173.277 232.271 173.336C232.246 173.394 232.209 173.448 232.163 173.493C232.117 173.538 232.062 173.573 232.002 173.598C231.942 173.622 231.877 173.634 231.812 173.634Z" fill="#FF7938"/>
<path opacity="0.7" d="M159.236 173.634H153.598C153.467 173.634 153.341 173.583 153.247 173.493C153.154 173.402 153.102 173.279 153.102 173.15C153.102 173.087 153.115 173.024 153.14 172.965C153.165 172.907 153.201 172.853 153.247 172.808C153.294 172.763 153.348 172.728 153.408 172.703C153.469 172.679 153.533 172.667 153.598 172.667H159.236C159.301 172.667 159.365 172.679 159.426 172.703C159.486 172.728 159.541 172.763 159.587 172.808C159.633 172.853 159.669 172.907 159.694 172.965C159.719 173.024 159.732 173.087 159.732 173.15C159.732 173.279 159.68 173.402 159.587 173.493C159.494 173.583 159.367 173.634 159.236 173.634Z" fill="white"/>
<path d="M237.653 172.667H233.961C233.735 172.667 233.553 172.845 233.553 173.064V173.237C233.553 173.456 233.735 173.634 233.961 173.634H237.653C237.878 173.634 238.061 173.456 238.061 173.237V173.064C238.061 172.845 237.878 172.667 237.653 172.667Z" fill="#FF7938"/>
<path d="M116.389 163.981L121.326 87.6524C121.351 87.334 121.498 87.0363 121.737 86.818C121.976 86.5996 122.29 86.4763 122.618 86.4723H250.111C250.267 86.47 250.422 86.4995 250.566 86.559C250.71 86.6184 250.84 86.7065 250.947 86.8176C251.053 86.9287 251.135 87.0603 251.187 87.2041C251.239 87.3478 251.259 87.5006 251.247 87.6524L246.317 163.981C246.29 164.3 246.142 164.598 245.901 164.816C245.661 165.034 245.346 165.158 245.018 165.161H117.532C117.375 165.163 117.221 165.132 117.077 165.073C116.933 165.013 116.804 164.925 116.696 164.814C116.589 164.703 116.507 164.572 116.454 164.429C116.401 164.286 116.379 164.133 116.389 163.981Z" fill="white"/>
<path opacity="0.1" d="M188.918 84.1187L146.452 162.814H115.124C114.967 162.817 114.811 162.787 114.667 162.727C114.522 162.667 114.392 162.579 114.284 162.467C114.177 162.355 114.094 162.223 114.042 162.079C113.99 161.934 113.97 161.78 113.982 161.628L118.919 85.3054C118.944 84.9863 119.091 84.6879 119.329 84.4685C119.568 84.249 119.883 84.1243 120.211 84.1187H188.918Z" fill="#FF7938"/>
<path opacity="0.1" d="M226.107 84.1187L183.641 162.814H173.74L216.206 84.1187H226.107Z" fill="#FF7938"/>
<path opacity="0.1" d="M248.839 85.3058L243.903 161.628C243.879 161.948 243.733 162.247 243.494 162.467C243.254 162.686 242.939 162.811 242.611 162.815H194.331L236.797 84.119H247.677C247.835 84.1149 247.993 84.1432 248.139 84.2021C248.286 84.261 248.418 84.3492 248.528 84.461C248.637 84.5728 248.722 84.7057 248.775 84.8512C248.829 84.9967 248.851 85.1516 248.839 85.3058Z" fill="#FF7938"/>
<path opacity="0.4" d="M187.429 84.1983C187.41 84.4388 187.3 84.6638 187.12 84.8294C186.94 84.9949 186.704 85.0891 186.456 85.0933C186.338 85.0946 186.221 85.0719 186.112 85.0266C186.004 84.9812 185.906 84.9143 185.825 84.8301C185.745 84.7459 185.683 84.6462 185.644 84.5374C185.605 84.4286 185.59 84.3131 185.599 84.1983C185.616 83.9573 185.726 83.7314 185.906 83.5655C186.086 83.3997 186.324 83.306 186.572 83.3033C186.69 83.302 186.807 83.3247 186.916 83.3701C187.024 83.4154 187.122 83.4823 187.203 83.5665C187.283 83.6507 187.345 83.7504 187.384 83.8592C187.423 83.968 187.438 84.0835 187.429 84.1983Z" fill="white"/>
<path d="M166.362 65.8934C162.642 70.0437 160.494 82.7663 163.248 89.0248C166.002 95.2833 134.048 101.549 160.412 111.719C186.776 121.889 207.862 110.094 200.233 99.5596C192.603 89.0248 201.056 71.4823 192.222 67.0735C184.239 63.0559 173.815 57.573 166.362 65.8934Z" fill="#263238"/>
<path d="M158.481 117.122C157.087 121.763 155.604 126.404 154.068 131.045C152.531 135.686 150.933 140.273 149.24 144.881L148.594 146.618L148.267 147.487L148.165 147.745L148.002 148.136C147.9 148.388 147.744 148.66 147.608 148.919C146.943 150.102 145.951 151.081 144.745 151.743C143.65 152.323 142.427 152.636 141.182 152.658C139.434 152.666 137.703 152.335 136.088 151.683C134.767 151.16 133.487 150.542 132.26 149.834C127.802 147.161 123.715 143.938 120.102 140.247L123.032 136.879C124.018 137.495 125.072 138.152 126.092 138.768C127.112 139.385 128.18 139.982 129.214 140.572C131.239 141.727 133.33 142.77 135.476 143.694C136.454 144.115 137.464 144.463 138.496 144.735C139.209 144.966 139.964 145.052 140.712 144.987C140.903 144.987 140.869 144.881 140.712 144.941C140.556 145 140.386 145.173 140.379 145.153C140.372 145.133 140.379 145.153 140.379 145.113C140.382 145.1 140.382 145.086 140.379 145.073L140.434 144.908L140.692 144.052L141.216 142.329L145.37 128.406C146.785 123.765 148.24 119.124 149.736 114.483L158.481 117.122Z" fill="#B65B52"/>
<path d="M122.822 136.773L114.92 133.922L118.055 142.063C118.055 142.063 123.631 142.846 125.793 139.988L124.032 137.688C123.727 137.276 123.307 136.958 122.822 136.773Z" fill="#B55B52"/>
<path d="M107.95 136.289L110.956 142.965L118.089 142.05L114.947 133.909L107.95 136.289Z" fill="#B55B52"/>
<path d="M152.715 105.115C149.097 106.01 146.595 120.51 146.595 120.51L156.557 127.139C156.557 127.139 166.077 112.514 163.323 108.642C160.399 104.578 157.985 103.809 152.715 105.115Z" fill="#FF7938"/>
<path opacity="0.5" d="M152.715 105.115C149.097 106.01 146.595 120.51 146.595 120.51L156.557 127.139C156.557 127.139 166.077 112.514 163.323 108.642C160.399 104.578 157.985 103.809 152.715 105.115Z" fill="white"/>
<path opacity="0.2" d="M152.388 110.386L160.12 112.13L160.861 119.509C159.551 122.114 158.105 124.652 156.53 127.113L150.484 123.135C150.75 119.721 151.402 112.707 152.388 110.386Z" fill="black"/>
<path d="M152.715 105.116C152.715 105.116 148.533 106.548 156.903 156.709H192.508C191.91 142.581 191.896 133.862 198.819 104.87C193.835 103.865 188.783 103.216 183.702 102.928C177.711 102.643 172.822 102.457 167.532 102.928C160.589 103.544 152.715 105.116 152.715 105.116Z" fill="#FF7938"/>
<path opacity="0.5" d="M152.715 105.116C152.715 105.116 148.533 106.548 156.903 156.709H192.508C191.91 142.581 191.896 133.862 198.819 104.87C193.835 103.865 188.783 103.216 183.702 102.928C177.711 102.643 172.822 102.457 167.532 102.928C160.589 103.544 152.715 105.116 152.715 105.116Z" fill="white"/>
<path opacity="0.2" d="M190.441 118.329L195.038 122.147C194.058 127.219 193.399 131.429 192.998 135.201C192.12 131.436 189.931 121.213 190.441 118.329Z" fill="black"/>
<path d="M182.097 85.1729C181.077 90.2447 180.057 99.5396 183.702 102.927C183.702 102.927 180.302 110.525 171.292 110.525C162.282 110.525 167.532 102.927 167.532 102.927C173.332 101.602 173.182 97.3783 172.176 93.4402L182.097 85.1729Z" fill="#B55B52"/>
<path d="M182.546 101.031C181.689 102.722 178.929 106.587 171.217 107.966C171.003 108.005 170.782 107.962 170.599 107.847C169.157 106.866 168.259 104.791 168.892 102.384C168.934 102.236 168.932 102.08 168.888 101.933C168.843 101.785 168.758 101.653 168.64 101.551C168.523 101.449 168.378 101.381 168.223 101.355C168.068 101.329 167.909 101.345 167.763 101.403C167.171 101.644 166.602 101.937 166.063 102.278C165.945 102.354 165.849 102.459 165.784 102.583C165.22 103.617 162.935 108.682 169.83 111.805C169.94 111.851 170.058 111.878 170.177 111.884C174.257 111.964 181.39 111.182 185.899 103.266C185.979 103.123 186.015 102.96 186.002 102.797C185.988 102.635 185.926 102.48 185.824 102.351C185.218 101.704 184.514 101.152 183.736 100.713C183.638 100.652 183.528 100.611 183.413 100.594C183.298 100.577 183.181 100.584 183.068 100.614C182.956 100.644 182.852 100.696 182.762 100.768C182.672 100.84 182.598 100.93 182.546 101.031Z" fill="#FAFAFA"/>
<path d="M184.436 121.902L175.256 121.643C175.16 121.644 175.065 121.625 174.978 121.587C174.89 121.549 174.811 121.494 174.747 121.424C174.683 121.355 174.634 121.273 174.605 121.184C174.576 121.095 174.566 121 174.576 120.907L174.665 119.8C174.691 119.614 174.787 119.444 174.934 119.322C175.08 119.199 175.268 119.134 175.46 119.137L184.64 119.396C184.737 119.395 184.833 119.415 184.921 119.453C185.009 119.491 185.088 119.547 185.153 119.617C185.217 119.688 185.265 119.77 185.294 119.86C185.323 119.95 185.332 120.045 185.32 120.138L185.232 121.239C185.205 121.425 185.11 121.595 184.963 121.718C184.817 121.84 184.629 121.905 184.436 121.902Z" fill="#FAFAFA"/>
<path opacity="0.2" d="M178.051 88.5474L172.176 93.4335C172.428 94.3498 172.597 95.2861 172.679 96.2313C174.889 95.9197 177.936 93.5462 178.174 91.2855C178.304 90.3731 178.262 89.4452 178.051 88.5474Z" fill="black"/>
<path d="M188.952 75.5799C187.313 83.9136 186.803 87.4738 181.88 91.2329C174.475 96.8947 164.336 93.1025 163.397 84.4638C162.547 76.6871 165.369 64.3689 174.277 62.0882C176.229 61.5825 178.282 61.5709 180.24 62.0546C182.197 62.5383 183.996 63.5013 185.466 64.8523C186.935 66.2034 188.027 67.8977 188.637 69.775C189.247 71.6523 189.355 73.6503 188.952 75.5799Z" fill="#B55B52"/>
<path d="M184.09 69.4141C183.029 74.6318 182.777 81.5466 187.68 81.5466C192.583 81.5466 196.425 73.4119 192.195 67.0406C187.966 60.6694 184.708 66.3379 184.09 69.4141Z" fill="#263238"/>
<path d="M192.562 70.0571C192.562 75.7322 185.232 72.9278 181.988 70.4814C178.745 68.035 178.588 68.3002 172.577 68.2935C166.566 68.2869 165.362 67.8825 163.588 65.0847C161.813 62.2869 161.976 60.4438 165.974 61.0339C169.973 61.6239 166.614 57.6461 169.592 55.4383C172.57 53.2306 176.1 53.7875 180.173 58.8262C184.246 63.8648 192.562 60.2251 192.562 70.0571Z" fill="#263238"/>
<path d="M190.41 82.9947C191.182 80.4298 190.425 77.9555 188.72 77.4682C187.016 76.981 185.009 78.6653 184.237 81.2302C183.466 83.7952 184.223 86.2695 185.927 86.7568C187.632 87.244 189.639 85.5597 190.41 82.9947Z" fill="white"/>
<path d="M176.8 89.4094C175.222 89.4091 173.66 89.0956 172.21 88.4879C172.179 88.4755 172.151 88.4573 172.127 88.4342C172.103 88.4111 172.085 88.3836 172.072 88.3533C172.059 88.3231 172.053 88.2906 172.053 88.258C172.054 88.2253 172.061 88.193 172.074 88.163C172.102 88.1025 172.153 88.055 172.217 88.0303C172.28 88.0056 172.351 88.0056 172.414 88.0304C173.78 88.6021 175.251 88.9008 176.737 88.9087C178.224 88.9167 179.698 88.6338 181.07 88.0768C182.406 87.5441 183.618 86.7565 184.636 85.7603C185.655 84.764 186.458 83.5793 187 82.2757C189.04 76.5807 191.121 69.4736 188.714 65.0382C188.229 64.175 187.559 63.4241 186.749 62.837C185.94 62.2499 185.009 61.8406 184.022 61.6371C183.956 61.62 183.9 61.5784 183.866 61.5213C183.831 61.4643 183.821 61.3963 183.838 61.3322C183.856 61.2683 183.898 61.2137 183.957 61.1802C184.015 61.1467 184.085 61.137 184.151 61.1532C185.206 61.3745 186.199 61.8147 187.064 62.4439C187.929 63.0731 188.645 63.8766 189.162 64.7996C191.665 69.3808 189.577 76.6271 187.476 82.4282C186.906 83.7972 186.061 85.041 184.99 86.0863C183.919 87.1316 182.644 87.9572 181.24 88.5144C179.834 89.0906 178.326 89.3946 176.8 89.4094Z" fill="white"/>
<path opacity="0.6" d="M190.162 83.0184C189.557 85.0073 188.17 86.4062 187.061 86.0946C185.953 85.783 185.545 83.8869 186.15 81.8714C186.755 79.8559 188.143 78.4769 189.251 78.7952C190.359 79.1134 190.767 81.0029 190.162 83.0184Z" fill="#FF7938"/>
<path d="M172.916 87.3911L170.252 86.89C169.784 86.8019 169.331 87.1006 169.241 87.5572L169.211 87.7069C169.121 88.1635 169.427 88.6051 169.895 88.6932L172.56 89.1943C173.028 89.2824 173.481 88.9837 173.571 88.5271L173.601 88.3773C173.691 87.9207 173.385 87.4792 172.916 87.3911Z" fill="white"/>
<path d="M169.436 76.2759C169.436 76.2759 167.858 79.067 166.362 80.3201C167.172 81.2814 168.804 81.0957 168.804 81.0957L169.436 76.2759Z" fill="#A02724"/>
<path d="M170.939 84.6624H171C172.542 84.781 174.072 84.3262 175.284 83.3895C175.309 83.3647 175.323 83.3314 175.323 83.2966C175.323 83.2619 175.309 83.2286 175.284 83.2038C175.272 83.192 175.258 83.1826 175.242 83.1762C175.226 83.1698 175.209 83.1665 175.192 83.1665C175.175 83.1665 175.158 83.1698 175.142 83.1762C175.127 83.1826 175.112 83.192 175.1 83.2038C173.943 84.0906 172.488 84.5233 171.02 84.4171C171.003 84.4143 170.985 84.415 170.968 84.4193C170.951 84.4235 170.934 84.4311 170.92 84.4417C170.906 84.4523 170.895 84.4656 170.886 84.4807C170.878 84.4959 170.872 84.5126 170.871 84.5298C170.867 84.556 170.872 84.5826 170.884 84.6062C170.896 84.6298 170.915 84.6494 170.939 84.6624Z" fill="#263238"/>
<path d="M178.718 72.9943C178.756 73.0152 178.8 73.0262 178.844 73.0262C178.888 73.0262 178.931 73.0152 178.969 72.9943C179.028 72.9564 179.069 72.8979 179.084 72.8313C179.099 72.7646 179.087 72.6947 179.051 72.6363C178.726 72.1053 178.276 71.6576 177.738 71.3302C177.199 71.0027 176.589 70.805 175.957 70.7534C175.886 70.7534 175.818 70.7804 175.767 70.8287C175.716 70.877 175.687 70.9428 175.685 71.012C175.685 71.0794 175.712 71.1442 175.76 71.1925C175.809 71.2408 175.874 71.2688 175.943 71.2705C176.488 71.3212 177.013 71.4965 177.475 71.7822C177.937 72.0679 178.323 72.4559 178.602 72.9147C178.633 72.951 178.673 72.9785 178.718 72.9943Z" fill="#263238"/>
<path d="M174.821 76.3886C174.706 77.0515 174.237 77.562 173.774 77.4891C173.312 77.4162 173.047 76.8261 173.162 76.1101C173.278 75.3941 173.754 74.9366 174.209 75.0096C174.665 75.0825 174.944 75.7057 174.821 76.3886Z" fill="#263238"/>
<path d="M166.893 75.0758C166.777 75.7388 166.308 76.2493 165.846 76.1764C165.383 76.1035 165.118 75.4803 165.234 74.7974C165.349 74.1145 165.825 73.6173 166.281 73.6968C166.736 73.7764 167.015 74.3863 166.893 75.0758Z" fill="#263238"/>
<path d="M166.478 73.77L164.873 73.0142C164.873 73.0142 165.512 74.4396 166.478 73.77Z" fill="#263238"/>
<path d="M174.407 75.0827L172.802 74.3335C172.802 74.3335 173.441 75.7589 174.407 75.0827Z" fill="#263238"/>
<path d="M164.2 70.4549C164.241 70.4789 164.288 70.4915 164.336 70.4915C164.384 70.4915 164.431 70.4789 164.472 70.4549C164.892 70.1111 165.39 69.8712 165.925 69.7557C166.46 69.6403 167.016 69.6527 167.546 69.7919C167.612 69.8148 167.686 69.8109 167.749 69.781C167.813 69.7512 167.862 69.6979 167.886 69.6328C167.909 69.5678 167.905 69.4963 167.874 69.4341C167.844 69.372 167.789 69.3242 167.722 69.3013C167.112 69.1319 166.469 69.1085 165.847 69.2332C165.226 69.3578 164.644 69.6268 164.152 70.0174C164.124 70.0369 164.1 70.062 164.082 70.0911C164.064 70.1202 164.052 70.1525 164.048 70.1862C164.044 70.2198 164.046 70.254 164.056 70.2866C164.066 70.3191 164.082 70.3494 164.105 70.3754C164.127 70.4107 164.161 70.4384 164.2 70.4549Z" fill="#263238"/>
<path d="M155.55 165.161C155.55 165.161 155.455 160.415 156.91 156.708H192.508C192.508 156.708 195.711 161.747 196.54 165.161H155.55Z" fill="#FF7938"/>
<path d="M193.045 154.673L193.324 157.776C193.453 158.021 193.161 158.267 192.746 158.267H156.706C156.386 158.267 156.121 158.114 156.101 157.915L155.774 154.806C155.774 154.594 156.033 154.408 156.386 154.408H192.426C192.544 154.396 192.663 154.414 192.772 154.46C192.881 154.507 192.975 154.58 193.045 154.673Z" fill="#FF7938"/>
<path opacity="0.3" d="M193.045 154.673L193.324 157.776C193.453 158.021 193.161 158.267 192.746 158.267H156.706C156.386 158.267 156.121 158.114 156.101 157.915L155.774 154.806C155.774 154.594 156.033 154.408 156.386 154.408H192.426C192.544 154.396 192.663 154.414 192.772 154.46C192.881 154.507 192.975 154.58 193.045 154.673Z" fill="#FAFAFA"/>
<path d="M188.197 158.598H189.163C189.36 158.598 189.503 158.505 189.489 158.386L189.04 154.348C189.04 154.229 188.857 154.136 188.666 154.136H187.68C187.483 154.136 187.34 154.229 187.354 154.348L187.803 158.386C187.837 158.505 188.007 158.598 188.197 158.598Z" fill="#FF7938"/>
<path d="M159.44 158.598H160.405C160.596 158.598 160.745 158.505 160.732 158.386L160.276 154.348C160.276 154.229 160.099 154.136 159.902 154.136H158.937C158.746 154.136 158.597 154.229 158.61 154.348L159.066 158.386C159.079 158.505 159.249 158.598 159.44 158.598Z" fill="#FF7938"/>
<path d="M173.822 158.598H174.76C174.95 158.598 175.1 158.505 175.086 158.386L174.631 154.348C174.631 154.229 174.447 154.136 174.257 154.136H173.291C173.101 154.136 172.951 154.229 172.965 154.348L173.42 158.386C173.461 158.505 173.624 158.598 173.822 158.598Z" fill="#FF7938"/>
<path d="M201.865 114.695C203.429 119.646 204.932 124.622 206.374 129.626L208.543 137.091L209.624 140.803L209.896 141.718L210.032 142.176L210.066 142.282L209.957 142.116C209.785 141.876 209.574 141.666 209.332 141.493C208.799 141.116 208.166 140.897 207.509 140.863C207.013 140.84 206.518 140.936 206.068 141.142C205.578 141.4 205.626 141.46 205.666 141.413C205.782 141.316 205.886 141.207 205.979 141.089C206.3 140.698 206.595 140.288 206.863 139.862C207.462 138.907 208.053 137.833 208.611 136.733C209.767 134.532 210.807 132.198 211.861 129.851C212.915 127.504 213.901 125.131 214.921 122.737C215.941 120.344 216.914 117.937 217.92 115.564L222.265 116.823C221.136 121.995 219.817 127.073 218.185 132.132C217.383 134.671 216.492 137.184 215.465 139.729C214.935 141.002 214.37 142.275 213.67 143.595C213.297 144.308 212.879 144.999 212.419 145.663C212.133 146.08 211.815 146.474 211.467 146.843C210.915 147.454 210.245 147.952 209.495 148.308C208.746 148.663 207.919 148.832 207.088 148.799C206.102 148.746 205.154 148.406 204.368 147.824C203.866 147.456 203.432 147.007 203.082 146.498C202.861 146.172 202.668 145.828 202.504 145.471C202.443 145.325 202.375 145.173 202.328 145.04L202.198 144.715L202.022 144.244L201.668 143.31C201.206 142.07 200.736 140.83 200.308 139.59C199.438 137.111 198.567 134.638 197.751 132.152C196.083 127.184 194.528 122.191 193.086 117.175L201.865 114.695Z" fill="#B65B52"/>
<path d="M198.819 104.87C202.389 105.924 207.849 119.575 207.849 119.575L194.011 129.221C194.011 129.221 187.789 117.553 189.285 113.058C190.849 108.377 194.752 103.663 198.819 104.87Z" fill="#FF7938"/>
<path opacity="0.5" d="M198.819 104.87C202.389 105.924 207.849 119.575 207.849 119.575L194.011 129.221C194.011 129.221 187.789 117.553 189.285 113.058C190.849 108.377 194.752 103.663 198.819 104.87Z" fill="white"/>
<path d="M218.076 117.381L216.179 109.226L224.067 113.284C224.067 113.284 224.162 118.773 220.98 120.503L218.076 117.381Z" fill="#B55B52"/>
<path d="M219.484 102.755L224.516 106.236L224.067 113.283L216.179 109.226L219.484 102.755Z" fill="#B55B52"/>
<path d="M78.2001 61.7172H133.28C134.332 61.7071 135.374 61.9098 136.341 62.3126C137.308 62.7153 138.179 63.3093 138.899 64.0571C139.619 64.8048 140.171 65.69 140.522 66.6566C140.873 67.6232 141.014 68.6503 140.937 69.6729L139.4 93.9778C139.231 96.1174 138.25 98.1186 136.647 99.5899C135.045 101.061 132.938 101.897 130.737 101.934H124.358L126.963 110.28L114.505 101.934H75.6773C74.6257 101.944 73.5833 101.741 72.6162 101.338C71.649 100.935 70.7781 100.341 70.0585 99.5936C69.3388 98.8459 68.7862 97.9607 68.4354 96.9941C68.0846 96.0275 67.9433 95.0004 68.0205 93.9778L69.5437 69.6729C69.7126 67.5344 70.6932 65.5342 72.294 64.063C73.8947 62.5918 76.0006 61.7554 78.2001 61.7172Z" fill="#FF7938"/>
<path d="M128.235 74.4462H81.6546C81.4569 74.4452 81.2615 74.4041 81.0809 74.3256C80.9002 74.2471 80.7383 74.1328 80.6053 73.9901C80.4724 73.8474 80.3712 73.6793 80.3084 73.4964C80.2455 73.3136 80.2223 73.12 80.2402 72.928C80.2707 72.5257 80.4543 72.1489 80.7549 71.8717C81.0556 71.5945 81.4517 71.4369 81.8654 71.4297H128.452C128.649 71.4301 128.844 71.47 129.024 71.5468C129.204 71.6237 129.366 71.7358 129.5 71.8763C129.634 72.0169 129.737 72.1827 129.802 72.3637C129.868 72.5446 129.894 72.7367 129.88 72.928C129.856 73.3379 129.672 73.7232 129.366 74.0054C129.06 74.2875 128.656 74.4452 128.235 74.4462Z" fill="white"/>
<path d="M100.64 83.3234H81.0971C80.8992 83.3248 80.7031 83.2863 80.5213 83.2103C80.3394 83.1342 80.1756 83.0224 80.0402 82.8816C79.9048 82.7409 79.8007 82.5744 79.7345 82.3926C79.6683 82.2108 79.6414 82.0175 79.6555 81.8251C79.6861 81.4216 79.8706 81.0439 80.1727 80.7666C80.4748 80.4892 80.8726 80.3323 81.2875 80.3268H100.851C101.05 80.3244 101.246 80.3623 101.429 80.4379C101.612 80.5135 101.776 80.6253 101.912 80.7661C102.049 80.9069 102.153 81.0737 102.22 81.256C102.287 81.4383 102.314 81.6321 102.299 81.8251C102.267 82.2325 102.078 82.6131 101.771 82.8908C101.463 83.1685 101.059 83.323 100.64 83.3234Z" fill="white"/>
<path d="M117.389 92.2009H80.5395C80.3416 92.2023 80.1455 92.1638 79.9636 92.0877C79.7818 92.0117 79.618 91.8998 79.4826 91.7591C79.3472 91.6184 79.2431 91.4519 79.1769 91.27C79.1107 91.0882 79.0838 90.895 79.0979 90.7025C79.1269 90.2985 79.311 89.92 79.6134 89.6423C79.9159 89.3646 80.3145 89.2082 80.7299 89.2042H117.579C117.777 89.2018 117.974 89.2396 118.156 89.3153C118.339 89.391 118.503 89.5029 118.638 89.6438C118.774 89.7848 118.878 89.9517 118.944 90.134C119.01 90.3162 119.036 90.5099 119.021 90.7025C118.99 91.106 118.806 91.4837 118.503 91.7611C118.201 92.0384 117.804 92.1954 117.389 92.2009Z" fill="white"/>
<path d="M114.995 83.3234H107.29C107.093 83.3248 106.897 83.2863 106.715 83.2103C106.533 83.1343 106.369 83.0224 106.234 82.8816C106.098 82.7409 105.994 82.5744 105.928 82.3926C105.862 82.2108 105.835 82.0176 105.849 81.8251C105.881 81.4222 106.066 81.0454 106.368 80.7683C106.67 80.4912 107.066 80.3338 107.481 80.3268H115.178C115.377 80.3244 115.573 80.3622 115.756 80.4379C115.938 80.5136 116.102 80.6255 116.238 80.7664C116.373 80.9073 116.477 81.0742 116.543 81.2565C116.609 81.4388 116.635 81.6324 116.62 81.8251C116.59 82.2275 116.406 82.6042 116.105 82.8814C115.805 83.1586 115.409 83.3163 114.995 83.3234Z" fill="white"/>
<path d="M154.897 18.0266H124.868C123.156 18.0517 121.515 18.7002 120.268 19.8448C119.021 20.9894 118.258 22.5472 118.129 24.2122L116.96 43.1337C116.902 43.9292 117.013 44.7279 117.287 45.4794C117.561 46.2309 117.992 46.9189 118.552 47.5C119.112 48.0811 119.79 48.5428 120.542 48.8559C121.295 49.1691 122.105 49.3268 122.923 49.3193H127.84L124.997 55.8165L135.51 49.3193H152.932C154.644 49.2942 156.285 48.6457 157.532 47.5011C158.779 46.3566 159.542 44.7987 159.671 43.1337L160.861 24.2122C160.919 23.4167 160.808 22.618 160.534 21.8665C160.259 21.115 159.829 20.4271 159.268 19.8459C158.708 19.2648 158.031 18.8031 157.278 18.49C156.526 18.1769 155.715 18.0191 154.897 18.0266Z" fill="#FF7938"/>
<g opacity="0.5">
<path d="M154.897 18.0266H124.868C123.156 18.0517 121.515 18.7002 120.268 19.8448C119.021 20.9894 118.258 22.5472 118.129 24.2122L116.96 43.1337C116.902 43.9292 117.013 44.7279 117.287 45.4794C117.561 46.2309 117.992 46.9189 118.552 47.5C119.112 48.0811 119.79 48.5428 120.542 48.8559C121.295 49.1691 122.105 49.3268 122.923 49.3193H127.84L124.997 55.8165L135.51 49.3193H152.932C154.644 49.2942 156.285 48.6457 157.532 47.5011C158.779 46.3566 159.542 44.7987 159.671 43.1337L160.861 24.2122C160.919 23.4167 160.808 22.618 160.534 21.8665C160.259 21.115 159.829 20.4271 159.268 19.8459C158.708 19.2648 158.031 18.8031 157.278 18.49C156.526 18.1769 155.715 18.0191 154.897 18.0266Z" fill="#FAFAFA"/>
</g>
<path d="M140.42 36.7693C140.317 37.186 140.073 37.5568 139.728 37.8224C139.382 38.0881 138.956 38.2331 138.516 38.2345H136.741C136.741 37.7438 136.782 37.4455 136.789 37.3394C136.815 36.3838 137.066 35.4469 137.523 34.6013C138.166 33.6588 138.982 32.8405 139.93 32.1881C140.687 31.6537 141.401 31.0641 142.066 30.4245C142.418 30.0175 142.628 29.511 142.664 28.9792C142.691 28.6269 142.634 28.2734 142.499 27.9458C142.363 27.6182 142.152 27.3253 141.882 27.0898C141.222 26.5388 140.369 26.2584 139.502 26.3074C138.59 26.2832 137.699 26.5744 136.986 27.1295C136.562 27.4702 136.215 27.8922 135.966 28.3693C135.782 28.7178 135.497 29.0056 135.146 29.1967C134.796 29.3878 134.395 29.4736 133.994 29.4433C133.706 29.4085 133.431 29.3034 133.196 29.1377C132.96 28.972 132.771 28.751 132.646 28.4952C132.522 28.2394 132.465 27.9571 132.482 27.6743C132.499 27.3916 132.589 27.1176 132.743 26.8776C133.153 26.2062 133.68 25.6095 134.3 25.1141C135.774 23.9591 137.626 23.3633 139.516 23.4367C141.739 23.4367 143.466 24.0003 144.711 25.134C145.293 25.6223 145.752 26.2356 146.05 26.9258C146.349 27.616 146.479 28.3643 146.431 29.1118C146.369 29.9616 146.068 30.7781 145.561 31.4721C144.606 32.6187 143.502 33.6394 142.276 34.5085C141.642 34.9406 141.093 35.4821 140.658 36.1063C140.547 36.3154 140.467 36.5385 140.42 36.7693ZM136.537 41.5295V41.3173C136.573 40.8382 136.792 40.3897 137.151 40.0606C137.51 39.7315 137.983 39.5459 138.475 39.5405H138.72C138.956 39.5372 139.189 39.5816 139.407 39.6711C139.624 39.7605 139.819 39.8929 139.981 40.06C140.143 40.2271 140.267 40.4251 140.346 40.6416C140.425 40.858 140.457 41.0881 140.44 41.3173V41.5295C140.405 42.0092 140.186 42.4585 139.827 42.7886C139.468 43.1188 138.996 43.3059 138.502 43.3129H138.285C138.046 43.3201 137.809 43.2782 137.588 43.1901C137.367 43.1019 137.168 42.9694 137.003 42.8012C136.838 42.633 136.712 42.4328 136.631 42.2137C136.551 41.9946 136.519 41.7614 136.537 41.5295Z" fill="white"/>
</svg>
